<?xml version="1.0" encoding="UTF-8" standalone="no"?>
<svg
   xmlns:dc="http://purl.org/dc/elements/1.1/"
   xmlns:cc="http://creativecommons.org/ns#"
   xmlns:rdf="http://www.w3.org/1999/02/22-rdf-syntax-ns#"
   xmlns:svg="http://www.w3.org/2000/svg"
   xmlns="http://www.w3.org/2000/svg"
   viewBox="0 0 666.66669 666.66669"
   height="666.66669"
   width="666.66669"
   xml:space="preserve"
   id="svg2"
   version="1.1"><metadata
     id="metadata8"><rdf:RDF><cc:Work
         rdf:about=""><dc:format>image/svg+xml</dc:format><dc:type
           rdf:resource="http://purl.org/dc/dcmitype/StillImage" /></cc:Work></rdf:RDF></metadata><defs
     id="defs6"><clipPath
       id="clipPath20"
       clipPathUnits="userSpaceOnUse"><path
         id="path18"
         d="M 2500.01,3891 C 1731.77,3891 1109,3268.23 1109,2500 c 0,-768.24 622.77,-1391 1391.01,-1391 768.23,0 1390.99,622.76 1390.99,1391 0,768.23 -622.76,1391 -1390.99,1391 z m 193.23,-2376.09 c -146.28,-138.02 -192.26,-283.64 -192.26,-283.64 -44.05,145.62 -126.35,199.63 -261.81,371.97 -181.41,230.78 100.08,465.6 100.08,465.6 0,0 -82.8,-327.19 82.83,-323.05 158.69,3.96 138.34,199.25 -3.7,443.37 -138.17,237.41 147.4,429.53 147.4,429.53 -83.83,-150.28 -7.87,-352.11 133.55,-523.99 187.89,-228.36 113.55,-466.91 -6.09,-579.79 z m 632.93,366.55 -826.16,1075.18 -826.17,-1075.18 c -129.26,172.37 -205.86,386.5 -205.86,618.54 0,569.98 462.05,1032.03 1032.03,1032.03 569.98,0 1032.03,-462.05 1032.03,-1032.03 0,-232.04 -76.6,-446.17 -205.87,-618.54" /></clipPath></defs><g
     transform="matrix(1.3333333,0,0,-1.3333333,0,666.66667)"
     id="g10"><g
       transform="scale(0.1)"
       id="g12"><g
         id="g14"><g
           clip-path="url(#clipPath20)"
           id="g16"><path
             id="path22"
             style="fill:#a91c22;fill-opacity:1;fill-rule:nonzero;stroke:none"
             d="M 2500.01,3891 C 1731.77,3891 1109,3268.23 1109,2500 c 0,-768.24 622.77,-1391 1391.01,-1391 768.23,0 1390.99,622.76 1390.99,1391 0,768.23 -622.76,1391 -1390.99,1391 z m 193.23,-2376.09 c -146.28,-138.02 -192.26,-283.64 -192.26,-283.64 -44.05,145.62 -126.35,199.63 -261.81,371.97 -181.41,230.78 100.08,465.6 100.08,465.6 0,0 -82.8,-327.19 82.83,-323.05 158.69,3.96 138.34,199.25 -3.7,443.37 -138.17,237.41 147.4,429.53 147.4,429.53 -83.83,-150.28 -7.87,-352.11 133.55,-523.99 187.89,-228.36 113.55,-466.91 -6.09,-579.79 z m 632.93,366.55 -826.16,1075.18 -826.17,-1075.18 c -129.26,172.37 -205.86,386.5 -205.86,618.54 0,569.98 462.05,1032.03 1032.03,1032.03 569.98,0 1032.03,-462.05 1032.03,-1032.03 0,-232.04 -76.6,-446.17 -205.87,-618.54" /><path
             id="path24"
             style="fill:#a91c22;fill-opacity:1;fill-rule:nonzero;stroke:none"
             d="M 4850.55,-96.9648 C 7189.88,1735.5 7600.76,5117.41 5768.29,7456.73 3935.82,9796.05 553.914,10206.9 -1785.41,8374.47 -4124.73,6542 -4535.61,3160.09 -2703.14,820.77 -870.672,-1518.55 2511.23,-1929.43 4850.55,-96.9648" /><path
             id="path26"
             style="fill:#ab1c22;fill-opacity:1;fill-rule:nonzero;stroke:none"
             d="M 4830.81,-71.7539 C 7156.2,1749.8 7564.64,5111.59 5743.08,7436.98 3921.52,9762.38 559.738,10170.8 -1765.66,8349.25 -4091.05,6527.7 -4499.49,3165.91 -2677.93,840.52 -856.371,-1484.88 2505.41,-1893.32 4830.81,-71.7539" /><path
             id="path28"
             style="fill:#ac1c22;fill-opacity:1;fill-rule:nonzero;stroke:none"
             d="M 4811.06,-46.543 C 7122.53,1764.11 7528.52,5105.76 5717.87,7417.23 3907.21,9728.7 565.563,10134.7 -1745.91,8324.04 -4057.38,6513.39 -4463.37,3171.74 -2652.72,860.27 -842.063,-1451.2 2499.59,-1857.2 4811.06,-46.543" /><path
             id="path30"
             style="fill:#ad1d22;fill-opacity:1;fill-rule:nonzero;stroke:none"
             d="M 4791.31,-21.3281 C 7088.86,1778.42 7492.4,5099.94 5692.65,7397.48 3892.91,9695.03 571.391,10098.6 -1726.16,8298.83 -4023.7,6499.08 -4427.25,3177.57 -2627.5,880.02 -827.758,-1417.53 2493.76,-1821.07 4791.31,-21.3281" /><path
             id="path32"
             style="fill:#ae1d23;fill-opacity:1;fill-rule:nonzero;stroke:none"
             d="M 4771.56,3.88281 C 7055.18,1792.72 7456.28,5094.11 5667.44,7377.73 3878.6,9661.36 577.211,10062.5 -1706.41,8273.62 -3990.03,6484.78 -4391.13,3183.39 -2602.29,899.766 -813.453,-1383.86 2487.94,-1784.95 4771.56,3.88281" /><path
             id="path34"
             style="fill:#af1d23;fill-opacity:1;fill-rule:nonzero;stroke:none"
             d="M 4751.81,29.0977 C 7021.5,1807.03 7420.16,5088.29 5642.23,7357.98 3864.3,9627.68 583.039,10026.3 -1686.66,8248.41 -3956.36,6470.47 -4355.01,3189.21 -2577.08,919.516 -799.148,-1350.18 2482.11,-1748.84 4751.81,29.0977" /><path
             id="path36"
             style="fill:#b01d23;fill-opacity:1;fill-rule:nonzero;stroke:none"
             d="M 4732.06,54.3086 C 6987.83,1821.33 7384.04,5082.46 5617.02,7338.23 3849.99,9594.01 588.863,9990.21 -1666.91,8223.19 -3922.68,6456.17 -4318.89,3195.04 -2551.87,939.266 -784.844,-1316.51 2476.29,-1712.71 4732.06,54.3086" /><path
             id="path38"
             style="fill:#b11d23;fill-opacity:1;fill-rule:nonzero;stroke:none"
             d="M 4712.31,79.5195 C 6954.16,1835.64 7347.92,5076.64 5591.8,7318.48 3835.69,9560.33 594.688,9954.09 -1647.16,8197.98 -3889.01,6441.86 -4282.77,3200.86 -2526.66,959.016 -770.539,-1282.83 2470.46,-1676.59 4712.31,79.5195" /><path
             id="path40"
             style="fill:#b21d23;fill-opacity:1;fill-rule:nonzero;stroke:none"
             d="M 4692.56,104.734 C 6920.48,1849.94 7311.8,5070.81 5566.59,7298.73 3821.38,9526.66 600.516,9917.98 -1627.41,8172.77 -3855.33,6427.56 -4246.65,3206.69 -2501.44,978.766 -756.234,-1249.16 2464.63,-1640.48 4692.56,104.734" /><path
             id="path42"
             style="fill:#b31d23;fill-opacity:1;fill-rule:nonzero;stroke:none"
             d="m 4672.81,129.945 c 2214,1734.305 2602.87,4935.035 868.57,7149.035 -1734.3,2214 -4935.04,2602.88 -7149.04,868.57 -2214,-1734.3 -2602.87,-4935.03 -868.57,-7149.034 1734.3,-2213.996 4935.04,-2602.876 7149.04,-868.571" /><path
             id="path44"
             style="fill:#b41d23;fill-opacity:1;fill-rule:nonzero;stroke:none"
             d="m 4653.06,155.16 c 2200.07,1723.39 2586.5,4904 863.11,7104.07 -1723.4,2200.08 -4904.006,2586.5 -7104.08,863.11 -2200.07,-1723.39 -2586.5,-4904 -863.11,-7104.07 1723.395,-2200.08 4904,-2586.5 7104.08,-863.11" /><path
             id="path46"
             style="fill:#b51d23;fill-opacity:1;fill-rule:nonzero;stroke:none"
             d="M 4633.31,180.371 C 6819.46,1892.86 7203.44,5053.34 5490.95,7239.48 3778.46,9425.63 617.988,9809.62 -1568.16,8097.13 -3754.31,6384.64 -4138.29,3224.16 -2425.8,1038.02 -713.316,-1148.13 2447.16,-1532.12 4633.31,180.371" /><path
             id="path48"
             style="fill:#b61d23;fill-opacity:1;fill-rule:nonzero;stroke:none"
             d="M 4613.56,205.582 C 6785.79,1907.16 7167.32,5047.51 5465.74,7219.73 3764.16,9391.96 623.816,9773.5 -1548.41,8071.92 -3720.64,6370.34 -4102.17,3229.99 -2400.59,1057.77 -699.016,-1114.46 2441.33,-1496 4613.56,205.582" /><path
             id="path50"
             style="fill:#b71d24;fill-opacity:1;fill-rule:nonzero;stroke:none"
             d="M 4593.81,230.797 C 6752.11,1921.47 7131.2,5041.68 5440.53,7199.98 3749.86,9358.29 629.641,9737.38 -1528.66,8046.7 -3686.96,6356.03 -4066.05,3235.82 -2375.38,1077.52 -684.707,-1080.79 2435.51,-1459.88 4593.81,230.797" /><path
             id="path52"
             style="fill:#b91d24;fill-opacity:1;fill-rule:nonzero;stroke:none"
             d="M 4574.06,256.008 C 6718.44,1935.77 7095.08,5035.86 5415.32,7180.23 3735.55,9324.61 635.469,9701.25 -1508.91,8021.49 -3653.29,6341.73 -4029.93,3241.64 -2350.17,1097.27 -670.406,-1047.11 2429.68,-1423.75 4574.06,256.008" /><path
             id="path54"
             style="fill:#b91d24;fill-opacity:1;fill-rule:nonzero;stroke:none"
             d="M 4554.31,281.223 C 6684.76,1950.08 7058.96,5030.03 5390.11,7160.48 3721.25,9290.94 641.293,9665.14 -1489.16,7996.28 -3619.61,6327.42 -3993.81,3247.47 -2324.95,1117.02 -656.098,-1013.44 2423.86,-1387.64 4554.31,281.223" /><path
             id="path56"
             style="fill:#bb1d24;fill-opacity:1;fill-rule:nonzero;stroke:none"
             d="M 4534.56,306.434 C 6651.09,1964.38 7022.84,5024.21 5364.89,7140.73 3706.94,9257.26 647.117,9629.02 -1469.41,7971.07 -3585.94,6313.12 -3957.69,3253.29 -2299.74,1136.77 -641.793,-979.762 2418.03,-1351.52 4534.56,306.434" /><path
             id="path58"
             style="fill:#bc1e24;fill-opacity:1;fill-rule:nonzero;stroke:none"
             d="M 4514.81,331.645 C 6617.41,1978.69 6986.72,5018.38 5339.68,7120.98 3692.64,9223.59 652.945,9592.89 -1449.66,7945.86 -3552.27,6298.82 -3921.57,3259.12 -2274.53,1156.52 -627.488,-946.09 2412.21,-1315.39 4514.81,331.645" /><path
             id="path60"
             style="fill:#bd1e24;fill-opacity:1;fill-rule:nonzero;stroke:none"
             d="M 4495.06,356.859 C 6583.74,1992.99 6950.6,5012.55 5314.46,7101.23 3678.33,9189.91 658.77,9556.78 -1429.91,7920.64 -3518.59,6284.51 -3885.45,3264.95 -2249.32,1176.27 -613.184,-912.414 2406.38,-1279.27 4495.06,356.859" /><path
             id="path62"
             style="fill:#be1e24;fill-opacity:1;fill-rule:nonzero;stroke:none"
             d="M 4475.31,382.07 C 6550.06,2007.3 6914.48,5006.73 5289.25,7081.48 3664.03,9156.24 664.594,9520.66 -1410.16,7895.43 -3484.91,6270.2 -3849.33,3270.77 -2224.11,1196.02 -598.879,-878.738 2400.55,-1243.16 4475.31,382.07" /><path
             id="path64"
             style="fill:#bf1e24;fill-opacity:1;fill-rule:nonzero;stroke:none"
             d="M 4455.56,407.285 C 6516.39,2021.6 6878.36,5000.91 5264.04,7061.73 3649.72,9122.57 670.418,9484.54 -1390.41,7870.22 -3451.24,6255.9 -3813.21,3276.59 -2198.89,1215.77 -584.574,-845.066 2394.73,-1207.04 4455.56,407.285" /><path
             id="path66"
             style="fill:#c11e24;fill-opacity:1;fill-rule:nonzero;stroke:none"
             d="M 4435.81,432.496 C 6482.71,2035.91 6842.24,4995.08 5238.83,7041.98 3635.42,9088.89 676.246,9448.41 -1370.66,7845 -3417.57,6241.59 -3777.09,3282.42 -2173.68,1235.52 -570.27,-811.391 2388.9,-1170.91 4435.81,432.496" /><path
             id="path68"
             style="fill:#c21e25;fill-opacity:1;fill-rule:nonzero;stroke:none"
             d="M 4416.06,457.707 C 6449.04,2050.21 6806.12,4989.25 5213.62,7022.23 3621.11,9055.21 682.07,9412.3 -1350.91,7819.79 -3383.89,6227.29 -3740.97,3288.25 -2148.47,1255.27 -555.965,-777.715 2383.08,-1134.8 4416.06,457.707" /><path
             id="path70"
             style="fill:#c21e24;fill-opacity:1;fill-rule:nonzero;stroke:none"
             d="M 4396.31,482.922 C 6415.37,2064.52 6770,4983.43 5188.4,7002.49 3606.81,9021.54 687.895,9376.18 -1331.16,7794.58 -3350.22,6212.98 -3704.85,3294.07 -2123.25,1275.02 -541.66,-744.043 2377.25,-1098.68 4396.31,482.922" /><path
             id="path72"
             style="fill:#c31e25;fill-opacity:1;fill-rule:nonzero;stroke:none"
             d="M 4376.56,508.133 C 6381.69,2078.82 6733.88,4977.61 5163.19,6982.74 3592.5,8987.87 693.719,9340.05 -1311.41,7769.37 -3316.54,6198.68 -3668.73,3299.89 -2098.04,1294.77 -527.355,-710.367 2371.43,-1062.55 4376.56,508.133" /><path
             id="path74"
             style="fill:#c41e25;fill-opacity:1;fill-rule:nonzero;stroke:none"
             d="M 4356.81,533.348 C 6348.02,2093.13 6697.76,4971.78 5137.98,6962.99 3578.2,8954.2 699.543,9303.94 -1291.66,7744.16 -3282.87,6184.38 -3632.61,3305.72 -2072.83,1314.51 -513.047,-676.695 2365.61,-1026.43 4356.81,533.348" /><path
             id="path76"
             style="fill:#c51e25;fill-opacity:1;fill-rule:nonzero;stroke:none"
             d="M 4337.06,558.559 C 6314.34,2107.43 6661.64,4965.95 5112.77,6943.24 3563.89,8920.52 705.371,9267.82 -1271.91,7718.94 -3249.2,6170.07 -3596.49,3311.55 -2047.62,1334.26 -498.746,-643.02 2359.78,-990.316 4337.06,558.559" /><path
             id="path78"
             style="fill:#c61e25;fill-opacity:1;fill-rule:nonzero;stroke:none"
             d="M 4317.31,583.77 C 6280.67,2121.73 6625.52,4960.13 5087.55,6923.49 3549.59,8886.84 711.195,9231.7 -1252.16,7693.73 -3215.52,6155.77 -3560.37,3317.37 -2022.41,1354.01 -484.441,-609.344 2353.95,-954.195 4317.31,583.77" /><path
             id="path80"
             style="fill:#c81e25;fill-opacity:1;fill-rule:nonzero;stroke:none"
             d="M 4297.56,608.984 C 6247,2136.04 6589.4,4954.3 5062.34,6903.74 3535.28,8853.17 717.023,9195.57 -1232.41,7668.52 -3181.85,6141.46 -3524.25,3323.2 -1997.19,1373.76 -470.133,-575.672 2348.13,-918.074 4297.56,608.984" /><path
             id="path82"
             style="fill:#c91e25;fill-opacity:1;fill-rule:nonzero;stroke:none"
             d="M 4277.81,634.195 C 6213.32,2150.35 6553.28,4948.48 5037.13,6883.99 3520.98,8819.5 722.848,9159.46 -1212.66,7643.3 -3148.18,6127.15 -3488.13,3329.02 -1971.98,1393.51 -455.828,-542 2342.3,-881.957 4277.81,634.195" /><path
             id="path84"
             style="fill:#ca1e25;fill-opacity:1;fill-rule:nonzero;stroke:none"
             d="M 4258.06,659.41 C 6179.65,2164.65 6517.16,4942.65 5011.92,6864.24 3506.68,8785.82 728.672,9123.34 -1192.91,7618.09 -3114.5,6112.85 -3452.01,3334.85 -1946.77,1413.26 -441.523,-508.324 2336.48,-845.832 4258.06,659.41" /><path
             id="path86"
             style="fill:#cb1e25;fill-opacity:1;fill-rule:nonzero;stroke:none"
             d="M 4238.31,684.621 C 6145.97,2178.96 6481.04,4936.83 4986.7,6844.49 3492.37,8752.15 734.496,9087.21 -1173.16,7592.88 -3080.82,6098.54 -3415.89,3340.67 -1921.55,1433.01 -427.219,-474.648 2330.65,-809.715 4238.31,684.621" /><path
             id="path88"
             style="fill:#cc1e25;fill-opacity:1;fill-rule:nonzero;stroke:none"
             d="M 4218.56,709.832 C 6112.3,2193.26 6444.92,4931 4961.49,6824.74 3478.06,8718.48 740.324,9051.1 -1153.41,7567.67 -3047.15,6084.24 -3379.77,3346.5 -1896.34,1452.76 -412.914,-440.977 2324.82,-773.598 4218.56,709.832" /><path
             id="path90"
             style="fill:#cd1e25;fill-opacity:1;fill-rule:nonzero;stroke:none"
             d="M 4198.81,735.047 C 6078.63,2207.57 6408.8,4925.18 4936.28,6804.99 3463.76,8684.8 746.148,9014.97 -1133.66,7542.45 -3013.48,6069.93 -3343.65,3352.32 -1871.13,1472.51 -398.609,-407.301 2319,-737.473 4198.81,735.047" /><path
             id="path92"
             style="fill:#ce1e25;fill-opacity:1;fill-rule:nonzero;stroke:none"
             d="M 4179.06,760.258 C 6044.95,2221.87 6372.68,4919.35 4911.07,6785.24 3449.45,8651.13 751.973,8978.86 -1113.91,7517.24 -2979.8,6055.63 -3307.53,3358.15 -1845.92,1492.26 -384.305,-373.625 2313.18,-701.355 4179.06,760.258" /><path
             id="path94"
             style="fill:#d01e25;fill-opacity:1;fill-rule:nonzero;stroke:none"
             d="M 4159.31,785.473 C 6011.27,2236.18 6336.56,4913.53 4885.85,6765.49 3435.14,8617.45 757.797,8942.73 -1094.16,7492.03 -2946.13,6041.32 -3271.41,3363.97 -1820.7,1512.01 -369.996,-339.949 2307.35,-665.234 4159.31,785.473" /><path
             id="path96"
             style="fill:#d11e25;fill-opacity:1;fill-rule:nonzero;stroke:none"
             d="M 4139.56,810.684 C 5977.6,2250.48 6300.44,4907.7 4860.64,6745.74 3420.84,8583.78 763.625,8906.61 -1074.41,7466.82 -2912.45,6027.02 -3235.29,3369.8 -1795.49,1531.76 -355.695,-306.277 2301.52,-629.113 4139.56,810.684" /><path
             id="path98"
             style="fill:#d21e25;fill-opacity:1;fill-rule:nonzero;stroke:none"
             d="M 4119.81,835.895 C 5943.93,2264.79 6264.32,4901.88 4835.43,6725.99 3406.54,8550.1 769.449,8870.5 -1054.66,7441.61 -2878.78,6012.71 -3199.17,3375.63 -1770.28,1551.51 -341.391,-272.602 2295.7,-592.996 4119.81,835.895" /><path
             id="path100"
             style="fill:#d31e25;fill-opacity:1;fill-rule:nonzero;stroke:none"
             d="M 4100.06,861.109 C 5910.25,2279.09 6228.2,4896.05 4810.21,6706.24 3392.23,8516.43 775.273,8834.38 -1034.91,7416.39 -2845.1,5998.41 -3163.05,3381.45 -1745.07,1571.26 -327.082,-238.926 2289.88,-556.875 4100.06,861.109" /><path
             id="path102"
             style="fill:#d41e25;fill-opacity:1;fill-rule:nonzero;stroke:none"
             d="M 4080.31,886.32 C 5876.58,2293.39 6192.08,4890.22 4785,6686.49 3377.93,8482.75 781.102,8798.25 -1015.16,7391.18 -2811.43,5984.11 -3126.93,3387.28 -1719.86,1591.01 -312.781,-205.254 2284.05,-520.754 4080.31,886.32" /><path
             id="path104"
             style="fill:#d51e25;fill-opacity:1;fill-rule:nonzero;stroke:none"
             d="M 4060.56,911.535 C 5842.9,2307.7 6155.96,4884.4 4759.79,6666.74 3363.62,8449.08 786.926,8762.13 -995.414,7365.96 -2777.75,5969.8 -3090.81,3393.1 -1694.64,1610.76 -298.473,-171.578 2278.22,-484.633 4060.56,911.535" /><path
             id="path106"
             style="fill:#d71e25;fill-opacity:1;fill-rule:nonzero;stroke:none"
             d="M 4040.81,936.746 C 5809.23,2322.01 6119.84,4878.57 4734.58,6646.99 3349.32,8415.4 792.75,8726.02 -975.664,7340.75 -2744.08,5955.49 -3054.69,3398.93 -1669.43,1630.51 -284.168,-137.902 2272.4,-448.516 4040.81,936.746" /><path
             id="path108"
             style="fill:#d71e25;fill-opacity:1;fill-rule:nonzero;stroke:none"
             d="M 4021.06,961.957 C 5775.55,2336.31 6083.72,4872.75 4709.37,6627.24 3335.01,8381.73 798.574,8689.89 -955.914,7315.54 -2710.41,5941.19 -3018.57,3404.75 -1644.22,1650.26 -269.863,-104.23 2266.57,-412.395 4021.06,961.957" /><path
             id="path110"
             style="fill:#d81e25;fill-opacity:1;fill-rule:nonzero;stroke:none"
             d="M 4001.31,987.172 C 5741.88,2350.62 6047.6,4866.92 4684.15,6607.49 3320.71,8348.06 804.402,8653.77 -936.164,7290.33 -2676.73,5926.88 -2982.45,3410.58 -1619,1670.01 -255.559,-70.5586 2260.75,-376.273 4001.31,987.172" /><path
             id="path112"
             style="fill:#da1e25;fill-opacity:1;fill-rule:nonzero;stroke:none"
             d="M 3981.56,1012.38 C 5708.21,2364.92 6011.48,4861.1 4658.94,6587.74 3306.4,8314.38 810.227,8617.65 -916.414,7265.12 -2643.06,5912.58 -2946.33,3416.4 -1593.79,1689.76 -241.254,-36.8828 2254.92,-340.152 3981.56,1012.38" /><path
             id="path114"
             style="fill:#da1e25;fill-opacity:1;fill-rule:nonzero;stroke:none"
             d="M 3961.82,1037.6 C 5674.54,2379.23 5975.36,4855.27 4633.73,6567.99 3292.1,8280.71 816.055,8581.54 -896.664,7239.9 -2609.38,5898.27 -2910.21,3422.23 -1568.58,1709.51 -226.949,-3.20703 2249.1,-304.035 3961.82,1037.6" /><path
             id="path116"
             style="fill:#db1e25;fill-opacity:1;fill-rule:nonzero;stroke:none"
             d="M 3942.07,1062.81 C 5640.86,2393.53 5939.24,4849.45 4608.52,6548.24 3277.79,8247.04 821.879,8545.41 -876.914,7214.69 -2575.71,5883.97 -2874.09,3428.05 -1543.37,1729.26 -212.645,30.4648 2243.27,-267.914 3942.07,1062.81" /><path
             id="path118"
             style="fill:#dc1e25;fill-opacity:1;fill-rule:nonzero;stroke:none"
             d="M 3922.32,1088.02 C 5607.18,2407.84 5903.12,4843.62 4583.3,6528.49 3263.49,8213.36 827.703,8509.29 -857.168,7189.48 -2542.04,5869.66 -2837.97,3433.88 -1518.16,1749.01 -198.34,64.1406 2237.45,-231.793 3922.32,1088.02" /><path
             id="path120"
             style="fill:#dd1e25;fill-opacity:1;fill-rule:nonzero;stroke:none"
             d="M 3902.57,1113.23 C 5573.51,2422.14 5867,4837.8 4558.09,6508.74 3249.18,8179.69 833.527,8473.18 -837.418,7164.27 -2508.36,5855.36 -2801.85,3439.7 -1492.94,1768.76 -184.035,97.8125 2231.62,-195.676 3902.57,1113.23" /><path
             id="path122"
             style="fill:#de1d25;fill-opacity:1;fill-rule:nonzero;stroke:none"
             d="m 3882.82,1138.45 c 1657.02,1298 1948.06,3693.52 650.06,5350.54 C 3234.88,8146.01 839.352,8437.05 -817.668,7139.05 -2474.69,5841.05 -2765.73,3445.53 -1467.73,1788.51 -169.73,131.488 2225.8,-159.555 3882.82,1138.45" /><path
             id="path124"
             style="fill:#df1d25;fill-opacity:1;fill-rule:nonzero;stroke:none"
             d="M 3863.07,1163.66 C 5506.16,2450.75 5794.76,4826.14 4507.66,6469.24 3220.57,8112.34 845.18,8400.93 -797.918,7113.84 -2441.01,5826.75 -2729.61,3451.36 -1442.52,1808.26 -155.426,165.164 2219.97,-123.434 3863.07,1163.66" /><path
             id="path126"
             style="fill:#e01d25;fill-opacity:1;fill-rule:nonzero;stroke:none"
             d="M 3843.32,1188.87 C 5472.49,2465.06 5758.64,4820.32 4482.45,6449.49 3206.27,8078.66 851.004,8364.82 -778.168,7088.63 -2407.34,5812.44 -2693.49,3457.18 -1417.3,1828.01 -141.117,198.836 2214.14,-87.3164 3843.32,1188.87" /><path
             id="path128"
             style="fill:#e11d25;fill-opacity:1;fill-rule:nonzero;stroke:none"
             d="M 3823.57,1214.08 C 5438.81,2479.36 5722.52,4814.5 4457.24,6429.74 3191.96,8044.99 856.828,8328.7 -758.418,7063.42 -2373.66,5798.14 -2657.37,3463 -1392.09,1847.76 -126.816,232.512 2208.32,-51.1953 3823.57,1214.08" /><path
             id="path130"
             style="fill:#e11d25;fill-opacity:1;fill-rule:nonzero;stroke:none"
             d="M 3803.82,1239.3 C 5405.14,2493.67 5686.4,4808.67 4432.03,6409.99 3177.66,8011.31 862.652,8292.57 -738.668,7038.2 -2339.99,5783.83 -2621.25,3468.83 -1366.88,1867.51 -112.508,266.188 2202.5,-15.0742 3803.82,1239.3" /><path
             id="path132"
             style="fill:#e21d25;fill-opacity:1;fill-rule:nonzero;stroke:none"
             d="M 3784.07,1264.51 C 5371.46,2507.97 5650.28,4802.84 4406.82,6390.24 3163.36,7977.64 868.48,8256.45 -718.918,7012.99 -2306.32,5769.53 -2585.13,3474.66 -1341.67,1887.26 -98.207,299.859 2196.67,21.0469 3784.07,1264.51" /><path
             id="path134"
             style="fill:#e41d25;fill-opacity:1;fill-rule:nonzero;stroke:none"
             d="M 3764.32,1289.72 C 5337.79,2522.28 5614.16,4797.02 4381.6,6370.49 3149.05,7943.96 874.305,8220.33 -699.168,6987.78 -2272.64,5755.22 -2549.01,3480.48 -1316.45,1907.01 -83.8984,333.535 2190.84,57.168 3764.32,1289.72" /><path
             id="path136"
             style="fill:#e41d25;fill-opacity:1;fill-rule:nonzero;stroke:none"
             d="M 3744.57,1314.93 C 5304.11,2536.58 5578.04,4791.2 4356.39,6350.74 3134.74,7910.29 880.129,8184.21 -679.418,6962.57 -2238.96,5740.92 -2512.89,3486.3 -1291.24,1926.76 -69.5938,367.211 2185.02,93.2852 3744.57,1314.93" /><path
             id="path138"
             style="fill:#e51d25;fill-opacity:1;fill-rule:nonzero;stroke:none"
             d="M 3724.82,1340.14 C 5270.44,2550.88 5541.92,4785.37 4331.18,6330.99 3120.44,7876.62 885.957,8148.09 -659.668,6937.36 -2205.29,5726.62 -2476.77,3492.13 -1266.03,1946.51 -55.293,400.883 2179.19,129.406 3724.82,1340.14" /><path
             id="path140"
             style="fill:#e61d25;fill-opacity:1;fill-rule:nonzero;stroke:none"
             d="M 3705.07,1365.36 C 5236.77,2565.19 5505.8,4779.54 4305.96,6311.24 3106.13,7842.94 891.781,8111.97 -639.918,6912.14 -2171.62,5712.31 -2440.65,3497.96 -1240.82,1966.26 -40.9844,434.559 2173.37,165.527 3705.07,1365.36" /><path
             id="path142"
             style="fill:#e61d25;fill-opacity:1;fill-rule:nonzero;stroke:none"
             d="M 3685.32,1390.57 C 5203.09,2579.5 5469.68,4773.71 4280.75,6291.49 3091.83,7809.27 897.609,8075.86 -620.168,6886.93 -2137.95,5698 -2404.53,3503.79 -1215.61,1986.01 -26.6797,468.23 2167.54,201.645 3685.32,1390.57" /><path
             id="path144"
             style="fill:#e81c24;fill-opacity:1;fill-rule:nonzero;stroke:none"
             d="M 3665.57,1415.79 C 5169.42,2593.8 5433.56,4767.89 4255.54,6271.74 3077.52,7775.59 903.434,8039.73 -600.418,6861.71 -2104.27,5683.7 -2368.41,3509.61 -1190.39,2005.76 -12.375,501.906 2161.71,237.766 3665.57,1415.79" /><path
             id="path146"
             style="fill:#e91c24;fill-opacity:1;fill-rule:nonzero;stroke:none"
             d="M 3645.82,1441 C 5135.74,2608.11 5397.44,4762.07 4230.33,6251.99 3063.22,7741.92 909.258,8003.61 -580.668,6836.5 -2070.59,5669.39 -2332.29,3515.43 -1165.18,2025.51 1.92969,535.582 2155.89,273.887 3645.82,1441" /><path
             id="path148"
             style="fill:#e91c24;fill-opacity:1;fill-rule:nonzero;stroke:none"
             d="m 3626.07,1466.21 c 1476,1156.2 1735.25,3290.03 579.05,4766.03 C 3048.91,7708.25 915.082,7967.5 -560.918,6811.29 -2036.92,5655.09 -2296.17,3521.26 -1139.97,2045.26 16.2344,569.254 2150.07,310.004 3626.07,1466.21" /><path
             id="path150"
             style="fill:#eb1c24;fill-opacity:1;fill-rule:nonzero;stroke:none"
             d="M 3606.32,1491.42 C 5068.39,2636.71 5325.2,4750.41 4179.9,6212.49 3034.61,7674.57 920.91,7931.38 -541.168,6786.08 -2003.25,5640.79 -2260.05,3527.09 -1114.75,2065.01 30.5391,602.93 2144.24,346.125 3606.32,1491.42" /><path
             id="path152"
             style="fill:#ec1c24;fill-opacity:1;fill-rule:nonzero;stroke:none"
             d="M 3586.57,1516.63 C 5034.72,2651.02 5289.08,4744.59 4154.69,6192.74 3020.3,7640.89 926.734,7895.25 -521.418,6760.87 -1969.57,5626.48 -2223.93,3532.91 -1089.54,2084.76 44.8477,636.605 2138.41,382.246 3586.57,1516.63" /><path
             id="path154"
             style="fill:#ec1c24;fill-opacity:1;fill-rule:nonzero;stroke:none"
             d="M 3566.82,1541.85 C 5001.05,2665.33 5252.96,4738.77 4129.48,6172.99 3006,7607.22 932.559,7859.13 -501.668,6735.65 -1935.9,5612.17 -2187.81,3538.73 -1064.33,2104.51 59.1523,670.277 2132.59,418.367 3566.82,1541.85" /><path
             id="path156"
             style="fill:#ed1c24;fill-opacity:1;fill-rule:nonzero;stroke:none"
             d="M 3547.07,1567.06 C 4967.38,2679.63 5216.84,4732.94 4104.27,6153.25 2991.7,7573.55 938.387,7823.02 -481.918,6710.44 -1902.22,5597.87 -2151.69,3544.56 -1039.12,2124.26 73.4531,703.953 2126.77,454.484 3547.07,1567.06" /><path
             id="path158"
             style="fill:#ed1c24;fill-opacity:1;fill-rule:nonzero;stroke:none"
             d="M 3527.32,1592.27 C 4933.7,2693.93 5180.72,4727.12 4079.05,6133.5 2977.39,7539.88 944.211,7786.89 -462.168,6685.23 -1868.55,5583.57 -2115.57,3550.39 -1013.91,2144.01 87.7578,737.629 2120.94,490.605 3527.32,1592.27" /><path
             id="path160"
             style="fill:#ed1c24;fill-opacity:1;fill-rule:nonzero;stroke:none"
             d="M 3507.57,1617.48 C 4900.02,2708.24 5144.6,4721.29 4053.84,6113.75 2963.08,7506.2 950.035,7750.77 -442.422,6660.02 -1834.88,5569.26 -2079.45,3556.21 -988.691,2163.75 102.066,771.301 2115.11,526.727 3507.57,1617.48" /><path
             id="path162"
             style="fill:#ed1c24;fill-opacity:1;fill-rule:nonzero;stroke:none"
             d="M 3487.82,1642.7 C 4866.35,2722.55 5108.48,4715.46 4028.63,6094 2948.78,7472.52 955.859,7714.65 -422.672,6634.8 -1801.2,5554.95 -2043.33,3562.04 -963.48,2183.5 116.371,804.977 2109.29,562.848 3487.82,1642.7" /><path
             id="path164"
             style="fill:#ed1c24;fill-opacity:1;fill-rule:nonzero;stroke:none"
             d="M 3468.07,1667.91 C 4832.68,2736.85 5072.36,4709.64 4003.41,6074.25 2934.47,7438.85 961.684,7678.53 -402.922,6609.59 -1767.53,5540.65 -2007.21,3567.86 -938.266,2203.25 130.676,838.648 2103.46,598.969 3468.07,1667.91" /><path
             id="path166"
             style="fill:#ed1c24;fill-opacity:1;fill-rule:nonzero;stroke:none"
             d="M 3448.32,1693.12 C 4799,2751.16 5036.24,4703.82 3978.2,6054.5 2920.17,7405.18 967.508,7642.41 -383.172,6584.38 -1733.85,5526.34 -1971.09,3573.68 -913.055,2223 144.98,872.324 2097.64,635.086 3448.32,1693.12" /><path
             id="path168"
             style="fill:#ed1c24;fill-opacity:1;fill-rule:nonzero;stroke:none"
             d="M 3428.57,1718.33 C 4765.32,2765.46 5000.12,4697.99 3952.99,6034.75 2905.86,7371.5 973.336,7606.29 -363.422,6559.17 -1700.18,5512.04 -1934.97,3579.51 -887.844,2242.75 159.285,906 2091.81,671.207 3428.57,1718.33" /><path
             id="path170"
             style="fill:#ed1c24;fill-opacity:1;fill-rule:nonzero;stroke:none"
             d="M 3408.82,1743.55 C 4731.65,2779.77 4964,4692.16 3927.78,6015 2891.56,7337.83 979.16,7570.17 -343.672,6533.95 -1666.5,5497.73 -1898.85,3585.34 -862.629,2262.5 173.59,939.672 2085.99,707.328 3408.82,1743.55" /><path
             id="path172"
             style="fill:#ed1c24;fill-opacity:1;fill-rule:nonzero;stroke:none"
             d="M 3389.07,1768.76 C 4697.98,2794.07 4927.88,4686.34 3902.57,5995.25 2877.25,7304.16 984.988,7534.05 -323.922,6508.74 -1632.83,5483.43 -1862.73,3591.16 -837.418,2282.25 187.895,973.344 2080.16,743.445 3389.07,1768.76" /><path
             id="path174"
             style="fill:#ed1c24;fill-opacity:1;fill-rule:nonzero;stroke:none"
             d="M 3369.32,1793.97 C 4664.3,2808.38 4891.76,4680.51 3877.35,5975.5 2862.95,7270.48 990.813,7497.93 -304.172,6483.53 -1599.16,5469.13 -1826.61,3596.99 -812.203,2302 202.199,1007.02 2074.34,779.566 3369.32,1793.97" /><path
             id="path176"
             style="fill:#ed1c24;fill-opacity:1;fill-rule:nonzero;stroke:none"
             d="M 3349.57,1819.18 C 4630.63,2822.68 4855.64,4674.69 3852.14,5955.75 2848.64,7236.8 996.637,7461.81 -284.422,6458.32 -1565.48,5454.82 -1790.49,3602.81 -786.992,2321.75 216.504,1040.7 2068.51,815.688 3349.57,1819.18" /><path
             id="path178"
             style="fill:#ed1d24;fill-opacity:1;fill-rule:nonzero;stroke:none"
             d="M 3329.82,1844.39 C 4596.96,2836.98 4819.52,4668.86 3826.93,5936 2834.34,7203.13 1002.46,7425.7 -264.672,6433.11 -1531.81,5440.52 -1754.37,3608.64 -761.781,2341.5 230.809,1074.37 2062.68,851.805 3329.82,1844.39" /><path
             id="path180"
             style="fill:#ed1d24;fill-opacity:1;fill-rule:nonzero;stroke:none"
             d="M 3310.07,1869.61 C 4563.28,2851.29 4783.4,4663.04 3801.71,5916.25 2820.03,7169.46 1008.29,7389.57 -244.922,6407.89 -1498.13,5426.21 -1718.25,3614.46 -736.566,2361.25 245.117,1108.04 2056.86,887.926 3310.07,1869.61" /><path
             id="path182"
             style="fill:#ed1e24;fill-opacity:1;fill-rule:nonzero;stroke:none"
             d="M 3290.32,1894.82 C 4529.61,2865.59 4747.28,4657.21 3776.5,5896.5 2805.73,7135.78 1014.11,7353.45 -225.172,6382.68 -1464.46,5411.91 -1682.13,3620.29 -711.355,2381 259.418,1141.72 2051.04,924.047 3290.32,1894.82" /><path
             id="path184"
             style="fill:#ed1e24;fill-opacity:1;fill-rule:nonzero;stroke:none"
             d="M 3270.57,1920.04 C 4495.93,2879.9 4711.16,4651.39 3751.29,5876.75 2791.42,7102.11 1019.94,7317.33 -205.422,6357.46 -1430.79,5397.6 -1646.01,3626.11 -686.141,2400.75 273.727,1175.39 2045.21,960.168 3270.57,1920.04" /><path
             id="path186"
             style="fill:#ed1f24;fill-opacity:1;fill-rule:nonzero;stroke:none"
             d="M 3250.82,1945.25 C 4462.26,2894.21 4675.04,4645.56 3726.08,5857 2777.12,7068.43 1025.77,7281.21 -185.672,6332.25 -1397.11,5383.29 -1609.89,3631.94 -660.93,2420.5 288.031,1209.07 2039.38,996.285 3250.82,1945.25" /><path
             id="path188"
             style="fill:#ed1f24;fill-opacity:1;fill-rule:nonzero;stroke:none"
             d="m 3231.07,1970.46 c 1197.51,938.05 1407.85,2669.27 469.8,3866.79 C 2762.81,7034.76 1031.59,7245.09 -165.922,6307.04 -1363.43,5368.99 -1573.77,3637.77 -635.719,2440.25 302.336,1242.74 2033.56,1032.41 3231.07,1970.46" /><path
             id="path190"
             style="fill:#ed1f23;fill-opacity:1;fill-rule:nonzero;stroke:none"
             d="M 3211.32,1995.67 C 4394.91,2922.82 4602.8,4633.91 3675.65,5817.5 2748.51,7001.09 1037.41,7208.97 -146.172,6281.83 -1329.76,5354.68 -1537.65,3643.59 -610.504,2460 316.641,1276.42 2027.73,1068.53 3211.32,1995.67" /><path
             id="path192"
             style="fill:#ed1f23;fill-opacity:1;fill-rule:nonzero;stroke:none"
             d="M 3191.57,2020.89 C 4361.22,2937.13 4566.66,4628.08 3650.43,5797.74 2734.2,6967.4 1043.24,7172.84 -126.418,6256.61 -1296.07,5340.38 -1501.52,3649.42 -585.285,2479.76 330.949,1310.1 2021.91,1104.66 3191.57,2020.89" /><path
             id="path194"
             style="fill:#ed1f23;fill-opacity:1;fill-rule:nonzero;stroke:none"
             d="m 3181.92,2033.2 c 1162.86,910.91 1367.11,2592.04 456.2,3754.9 C 2727.21,6950.95 1046.09,7155.2 -116.77,6244.3 -1279.63,5333.39 -1483.88,3652.26 -572.973,2489.41 337.934,1326.55 2019.06,1122.3 3181.92,2033.2" /><path
             id="path196"
             style="fill:#ed1f23;fill-opacity:1;fill-rule:nonzero;stroke:none"
             d="M 3172.27,2045.52 C 4328.33,2951.1 4531.39,4622.39 3625.8,5778.45 2720.23,6934.51 1048.93,7137.56 -107.125,6231.98 -1263.18,5326.4 -1466.24,3655.11 -560.656,2499.05 344.922,1342.99 2016.21,1139.94 3172.27,2045.52" /><path
             id="path198"
             style="fill:#ed1f23;fill-opacity:1;fill-rule:nonzero;stroke:none"
             d="M 3162.63,2057.83 C 4311.89,2958.09 4513.75,4619.55 3613.49,5768.8 2713.24,6918.06 1051.78,7119.92 -97.4805,6219.67 -1246.74,5319.41 -1448.6,3657.95 -548.344,2508.7 351.91,1359.44 2013.37,1157.58 3162.63,2057.83" /><path
             id="path200"
             style="fill:#ed2023;fill-opacity:1;fill-rule:nonzero;stroke:none"
             d="M 3152.98,2070.14 C 4295.44,2965.07 4496.11,4616.7 3601.18,5759.16 2706.25,6901.62 1054.62,7102.28 -87.8359,6207.36 -1230.29,5312.43 -1430.96,3660.8 -536.031,2518.34 358.895,1375.88 2010.53,1175.22 3152.98,2070.14" /><path
             id="path202"
             style="fill:#ed2023;fill-opacity:1;fill-rule:nonzero;stroke:none"
             d="M 3143.34,2082.46 C 4279,2972.05 4478.46,4613.86 3588.87,5749.52 2699.27,6885.17 1057.46,7084.64 -78.1914,6195.04 -1213.85,5305.45 -1413.32,3663.64 -523.719,2527.98 365.879,1392.33 2007.68,1192.86 3143.34,2082.46" /><path
             id="path204"
             style="fill:#ed2023;fill-opacity:1;fill-rule:nonzero;stroke:none"
             d="m 3133.7,2094.77 c 1128.85,884.27 1327.12,2516.25 442.85,3645.1 C 2692.28,6868.73 1060.31,7067 -68.543,6182.73 -1197.4,5298.46 -1395.68,3666.49 -511.406,2537.63 372.867,1408.78 2004.84,1210.5 3133.7,2094.77" /><path
             id="path206"
             style="fill:#ed2023;fill-opacity:1;fill-rule:nonzero;stroke:none"
             d="M 3124.05,2107.08 C 4246.11,2986.03 4443.19,4608.17 3564.24,5730.22 2685.3,6852.28 1063.16,7049.36 -58.8984,6170.42 -1180.96,5291.47 -1378.04,3669.33 -499.094,2547.28 379.852,1425.22 2001.99,1228.14 3124.05,2107.08" /><path
             id="path208"
             style="fill:#ed2123;fill-opacity:1;fill-rule:nonzero;stroke:none"
             d="M 3114.4,2119.4 C 4229.66,2993.02 4425.55,4605.32 3551.93,5720.58 2678.31,6835.84 1066,7031.72 -49.2539,6158.1 -1164.51,5284.48 -1360.4,3672.18 -486.777,2556.92 386.84,1441.66 1999.15,1245.78 3114.4,2119.4" /><path
             id="path210"
             style="fill:#ed2123;fill-opacity:1;fill-rule:nonzero;stroke:none"
             d="M 3104.76,2131.71 C 4213.21,3000 4407.91,4602.48 3539.61,5710.93 2671.32,6819.39 1068.85,7014.08 -39.6094,6145.79 -1148.07,5277.5 -1342.76,3675.02 -474.465,2566.57 393.828,1458.11 1996.3,1263.42 3104.76,2131.71" /><path
             id="path212"
             style="fill:#ed2123;fill-opacity:1;fill-rule:nonzero;stroke:none"
             d="M 3095.11,2144.02 C 4196.77,3006.99 4390.27,4599.63 3527.3,5701.29 2664.34,6802.95 1071.69,6996.44 -29.9648,6133.48 -1131.62,5270.51 -1325.12,3677.87 -462.152,2576.21 400.813,1474.55 1993.46,1281.06 3095.11,2144.02" /><path
             id="path214"
             style="fill:#ed2223;fill-opacity:1;fill-rule:nonzero;stroke:none"
             d="m 3085.47,2156.34 c 1094.85,857.63 1287.16,2440.45 429.52,3535.3 C 2657.35,6786.5 1074.54,6978.8 -20.3203,6121.16 -1115.17,5263.53 -1307.48,3680.71 -449.84,2585.86 407.797,1491 1990.61,1298.7 3085.47,2156.34" /><path
             id="path216"
             style="fill:#ed2223;fill-opacity:1;fill-rule:nonzero;stroke:none"
             d="M 3075.82,2168.65 C 4163.88,3020.96 4354.98,4593.94 3502.68,5682 2650.36,6770.05 1077.38,6961.16 -10.6719,6108.85 -1098.73,5256.54 -1289.84,3683.56 -437.527,2595.5 414.785,1507.45 1987.77,1316.34 3075.82,2168.65" /><path
             id="path218"
             style="fill:#ee2323;fill-opacity:1;fill-rule:nonzero;stroke:none"
             d="M 3066.18,2180.96 C 4147.43,3027.95 4337.35,4591.1 3490.36,5672.35 2643.38,6753.61 1080.23,6943.52 -1.02734,6096.54 -1082.28,5249.55 -1272.2,3686.4 -425.215,2605.15 421.77,1523.89 1984.92,1333.98 3066.18,2180.96" /><path
             id="path220"
             style="fill:#ee2323;fill-opacity:1;fill-rule:nonzero;stroke:none"
             d="M 3056.53,2193.28 C 4130.98,3034.93 4319.7,4588.25 3478.05,5662.71 2636.39,6737.16 1083.07,6925.88 8.61719,6084.22 -1065.84,5242.57 -1254.55,3689.25 -412.898,2614.79 428.754,1540.34 1982.07,1351.62 3056.53,2193.28" /><path
             id="path222"
             style="fill:#ee2323;fill-opacity:1;fill-rule:nonzero;stroke:none"
             d="M 3046.89,2205.59 C 4114.54,3041.92 4302.06,4585.41 3465.73,5653.06 2629.41,6720.71 1085.92,6908.24 18.2617,6071.91 -1049.39,5235.58 -1236.91,3692.09 -400.586,2624.44 435.742,1556.79 1979.23,1369.26 3046.89,2205.59" /><path
             id="path224"
             style="fill:#ee2423;fill-opacity:1;fill-rule:nonzero;stroke:none"
             d="m 3037.24,2217.9 c 1060.85,831 1247.19,2364.66 416.18,3425.52 C 2622.42,6704.27 1088.76,6890.6 27.9063,6059.6 -1032.95,5228.6 -1219.28,3694.94 -388.273,2634.09 442.727,1573.23 1976.39,1386.9 3037.24,2217.9" /><path
             id="path226"
             style="fill:#ee2423;fill-opacity:1;fill-rule:nonzero;stroke:none"
             d="m 3027.59,2230.21 c 1054.06,825.68 1239.2,2349.5 413.52,3403.56 C 2615.43,6687.82 1091.61,6872.96 37.5547,6047.29 -1016.5,5221.61 -1201.64,3697.79 -375.961,2643.73 449.715,1589.68 1973.54,1404.54 3027.59,2230.21" /><path
             id="path228"
             style="fill:#ee2423;fill-opacity:1;fill-rule:nonzero;stroke:none"
             d="M 3017.95,2242.53 C 4065.2,3062.88 4249.14,4576.87 3428.8,5624.13 2608.45,6671.38 1094.45,6855.32 47.1992,6034.97 -1000.05,5214.63 -1184,3700.63 -363.648,2653.38 456.699,1606.12 1970.7,1422.18 3017.95,2242.53" /><path
             id="path230"
             style="fill:#ee2423;fill-opacity:1;fill-rule:nonzero;stroke:none"
             d="M 3008.3,2254.84 C 4048.76,3069.86 4231.5,4574.03 3416.48,5614.48 2601.46,6654.93 1097.3,6837.68 56.8438,6022.66 -983.609,5207.64 -1166.36,3703.47 -351.336,2663.02 463.684,1622.57 1967.85,1439.82 3008.3,2254.84" /><path
             id="path232"
             style="fill:#ee2522;fill-opacity:1;fill-rule:nonzero;stroke:none"
             d="m 2998.66,2267.16 c 1033.65,809.69 1215.2,2304.02 405.51,3337.68 C 2594.48,6638.49 1100.14,6820.04 66.4883,6010.35 -967.164,5200.65 -1148.71,3706.32 -339.02,2672.66 470.672,1639.01 1965.01,1457.46 2998.66,2267.16" /><path
             id="path234"
             style="fill:#ee2522;fill-opacity:1;fill-rule:nonzero;stroke:none"
             d="m 2989.02,2279.47 c 1026.85,804.37 1207.2,2288.87 402.84,3315.72 C 2587.49,6622.04 1102.98,6802.4 76.1328,5998.03 -950.719,5193.66 -1131.07,3709.16 -326.707,2682.31 477.66,1655.46 1962.16,1475.1 2989.02,2279.47" /><path
             id="path236"
             style="fill:#ee2622;fill-opacity:1;fill-rule:nonzero;stroke:none"
             d="M 2979.37,2291.78 C 3999.42,3090.82 4178.59,4565.49 3379.54,5585.54 2580.5,6605.6 1105.83,6784.76 85.7813,5985.72 -934.27,5186.68 -1113.43,3712.01 -314.395,2691.96 484.645,1671.9 1959.32,1492.74 2979.37,2291.78" /><path
             id="path238"
             style="fill:#ee2622;fill-opacity:1;fill-rule:nonzero;stroke:none"
             d="M 2969.72,2304.09 C 3982.97,3097.81 4160.95,4562.65 3367.23,5575.9 2573.52,6589.15 1108.68,6767.12 95.4258,5973.41 -917.824,5179.69 -1095.8,3714.85 -302.082,2701.6 491.633,1688.35 1956.47,1510.38 2969.72,2304.09" /><path
             id="path240"
             style="fill:#ee2722;fill-opacity:1;fill-rule:nonzero;stroke:none"
             d="M 2960.08,2316.41 C 3966.53,3104.79 4143.3,4559.8 3354.92,5566.25 2566.53,6572.7 1111.52,6749.48 105.07,5961.09 -901.379,5172.71 -1078.16,3717.7 -289.77,2711.25 498.617,1704.8 1953.63,1528.02 2960.08,2316.41" /><path
             id="path242"
             style="fill:#ee2722;fill-opacity:1;fill-rule:nonzero;stroke:none"
             d="m 2950.43,2328.72 c 999.65,783.06 1175.23,2228.24 392.18,3227.89 C 2559.55,6556.26 1114.37,6731.84 114.715,5948.78 -884.934,5165.72 -1060.52,3720.54 -277.457,2720.89 505.602,1721.24 1950.78,1545.66 2950.43,2328.72" /><path
             id="path244"
             style="fill:#ee2822;fill-opacity:1;fill-rule:nonzero;stroke:none"
             d="m 2940.79,2341.03 c 992.85,777.74 1167.23,2213.08 389.5,3205.93 C 2552.56,6539.81 1117.21,6714.2 124.359,5936.47 -868.488,5158.73 -1042.88,3723.39 -265.145,2730.54 512.59,1737.69 1947.94,1563.3 2940.79,2341.03" /><path
             id="path246"
             style="fill:#ee2822;fill-opacity:1;fill-rule:nonzero;stroke:none"
             d="m 2931.14,2353.35 c 986.05,772.4 1159.24,2197.92 386.84,3183.97 C 2545.57,6523.37 1120.05,6696.56 134.008,5924.15 -852.043,5151.75 -1025.23,3726.23 -252.828,2740.18 519.578,1754.13 1945.09,1580.94 2931.14,2353.35" /><path
             id="path248"
             style="fill:#ee2922;fill-opacity:1;fill-rule:nonzero;stroke:none"
             d="m 2921.5,2365.66 c 979.25,767.08 1151.24,2182.76 384.16,3162.01 C 2538.59,6506.92 1122.9,6678.92 143.652,5911.84 -835.598,5144.76 -1007.59,3729.08 -240.516,2749.83 526.563,1770.58 1942.25,1598.58 2921.5,2365.66" /><path
             id="path250"
             style="fill:#ee2922;fill-opacity:1;fill-rule:nonzero;stroke:none"
             d="M 2911.85,2377.97 C 3884.3,3139.72 4055.1,4545.58 3293.35,5518.03 2531.6,6490.48 1125.75,6661.28 153.297,5899.53 -819.152,5137.78 -989.953,3731.92 -228.203,2759.47 533.547,1787.02 1939.4,1616.22 2911.85,2377.97" /><path
             id="path252"
             style="fill:#ee2922;fill-opacity:1;fill-rule:nonzero;stroke:none"
             d="m 2902.21,2390.29 c 965.65,756.42 1135.25,2152.44 378.83,3118.09 C 2524.61,6474.03 1128.59,6643.64 162.941,5887.21 -802.707,5130.79 -972.316,3734.77 -215.891,2769.12 540.535,1803.47 1936.56,1633.86 2902.21,2390.29" /><path
             id="path254"
             style="fill:#ee2922;fill-opacity:1;fill-rule:nonzero;stroke:none"
             d="m 2892.56,2402.6 c 958.85,751.1 1127.26,2137.29 376.17,3096.14 C 2517.63,6457.59 1131.43,6626 172.586,5874.9 -786.262,5123.8 -954.676,3737.61 -203.578,2778.76 547.52,1819.91 1933.71,1651.5 2892.56,2402.6" /><path
             id="path256"
             style="fill:#ee2a22;fill-opacity:1;fill-rule:nonzero;stroke:none"
             d="m 2882.91,2414.91 c 952.05,745.77 1119.27,2122.13 373.5,3074.18 C 2510.64,6441.14 1134.28,6608.36 182.234,5862.59 -769.813,5116.82 -937.035,3740.46 -191.266,2788.41 554.508,1836.36 1930.87,1669.14 2882.91,2414.91" /><path
             id="path258"
             style="fill:#ee2a22;fill-opacity:1;fill-rule:nonzero;stroke:none"
             d="M 2873.27,2427.23 C 3818.52,3167.67 3984.54,4534.2 3244.1,5479.45 2503.65,6424.7 1137.13,6590.72 191.879,5850.27 -753.371,5109.83 -919.395,3743.3 -178.949,2798.05 561.496,1852.8 1928.02,1686.78 2873.27,2427.23" /><path
             id="path260"
             style="fill:#ee2b21;fill-opacity:1;fill-rule:nonzero;stroke:none"
             d="M 2863.63,2439.54 C 3802.07,3174.66 3966.9,4531.36 3231.79,5469.8 2496.67,6408.25 1139.97,6573.08 201.523,5837.96 -736.922,5102.84 -901.754,3746.14 -166.637,2807.7 568.48,1869.25 1925.18,1704.42 2863.63,2439.54" /><path
             id="path262"
             style="fill:#ee2c21;fill-opacity:1;fill-rule:nonzero;stroke:none"
             d="m 2853.98,2451.85 c 931.65,729.79 1095.28,2076.66 365.49,3008.31 C 2489.68,6391.8 1142.81,6555.44 211.168,5825.65 -720.477,5095.86 -884.113,3748.99 -154.324,2817.34 575.465,1885.7 1922.34,1722.06 2853.98,2451.85" /><path
             id="path264"
             style="fill:#ee2c21;fill-opacity:1;fill-rule:nonzero;stroke:none"
             d="m 2844.34,2464.16 c 924.84,724.47 1087.29,2061.5 362.82,2986.35 C 2482.7,6375.36 1145.66,6537.8 220.813,5813.34 -704.031,5088.87 -866.473,3751.84 -142.012,2826.99 582.453,1902.14 1919.49,1739.7 2844.34,2464.16" /><path
             id="path266"
             style="fill:#ee2d21;fill-opacity:1;fill-rule:nonzero;stroke:none"
             d="m 2834.69,2476.48 c 918.04,719.13 1079.29,2046.34 360.16,2964.38 C 2475.71,6358.91 1148.5,6520.16 230.461,5801.02 -687.586,5081.89 -848.836,3754.68 -129.699,2836.64 589.438,1918.59 1916.64,1757.34 2834.69,2476.48" /><path
             id="path268"
             style="fill:#ee2d21;fill-opacity:1;fill-rule:nonzero;stroke:none"
             d="m 2825.04,2488.79 c 911.25,713.81 1071.3,2031.18 357.5,2942.43 C 2468.72,6342.46 1151.35,6502.52 240.105,5788.71 -671.141,5074.9 -831.195,3757.53 -117.387,2846.28 596.426,1935.04 1913.8,1774.98 2825.04,2488.79" /><path
             id="path270"
             style="fill:#ee2e21;fill-opacity:1;fill-rule:nonzero;stroke:none"
             d="m 2815.4,2501.11 c 904.44,708.48 1063.3,2016.02 354.82,2920.46 C 2461.74,6326.02 1154.2,6484.88 249.75,5776.39 -654.695,5067.91 -813.551,3760.37 -105.07,2855.93 603.41,1951.48 1910.95,1792.63 2815.4,2501.11" /><path
             id="path272"
             style="fill:#ee2e21;fill-opacity:1;fill-rule:nonzero;stroke:none"
             d="M 2805.75,2513.42 C 3703.4,3216.57 3861.06,4514.29 3157.91,5411.93 2454.75,6309.57 1157.04,6467.24 259.395,5764.08 -638.25,5060.93 -795.914,3763.21 -92.7578,2865.57 610.398,1967.93 1908.11,1810.26 2805.75,2513.42" /><path
             id="path274"
             style="fill:#ef2e21;fill-opacity:1;fill-rule:nonzero;stroke:none"
             d="m 2796.11,2525.73 c 890.84,697.83 1047.31,1985.71 349.48,2876.56 C 2447.77,6293.13 1159.88,6449.6 269.039,5751.77 -621.805,5053.94 -778.273,3766.06 -80.4453,2875.21 617.383,1984.37 1905.27,1827.9 2796.11,2525.73" /><path
             id="path276"
             style="fill:#ef2f21;fill-opacity:1;fill-rule:nonzero;stroke:none"
             d="m 2786.46,2538.04 c 884.04,692.5 1039.32,1970.55 346.82,2854.6 C 2440.78,6276.68 1162.73,6431.96 278.688,5739.46 -605.355,5046.96 -760.633,3768.91 -68.1328,2884.86 624.367,2000.82 1902.42,1845.54 2786.46,2538.04" /><path
             id="path278"
             style="fill:#ef2f21;fill-opacity:1;fill-rule:nonzero;stroke:none"
             d="m 2776.82,2550.36 c 877.24,687.17 1031.32,1955.39 344.15,2832.63 C 2433.79,6260.23 1165.57,6414.32 288.332,5727.14 -588.91,5039.97 -742.996,3771.75 -55.8203,2894.51 631.355,2017.27 1899.57,1863.18 2776.82,2550.36" /><path
             id="path280"
             style="fill:#ef3021;fill-opacity:1;fill-rule:nonzero;stroke:none"
             d="M 2767.17,2562.67 C 3637.62,3244.52 3790.5,4502.9 3108.66,5373.35 2426.81,6243.79 1168.42,6396.68 297.977,5714.83 -572.469,5032.98 -725.355,3774.6 -43.5078,2904.15 638.34,2033.71 1896.73,1880.82 2767.17,2562.67" /><path
             id="path282"
             style="fill:#ef3120;fill-opacity:1;fill-rule:nonzero;stroke:none"
             d="M 2757.53,2574.98 C 3621.17,3251.5 3772.86,4500.06 3096.34,5363.7 2419.82,6227.34 1171.27,6379.04 307.621,5702.52 -556.02,5026 -707.711,3777.44 -31.1914,2913.8 645.328,2050.16 1893.88,1898.46 2757.53,2574.98" /><path
             id="path284"
             style="fill:#ef3120;fill-opacity:1;fill-rule:nonzero;stroke:none"
             d="m 2747.88,2587.3 c 856.85,671.19 1007.34,1909.91 336.15,2766.76 C 2412.84,6210.9 1174.11,6361.4 317.266,5690.2 -539.578,5019.01 -690.074,3780.29 -18.8789,2923.44 652.313,2066.6 1891.04,1916.1 2747.88,2587.3" /><path
             id="path286"
             style="fill:#ef3220;fill-opacity:1;fill-rule:nonzero;stroke:none"
             d="m 2738.23,2599.61 c 850.05,665.87 999.35,1894.76 333.48,2744.8 C 2405.85,6194.46 1176.96,6343.76 326.914,5677.89 -523.129,5012.02 -672.434,3783.13 -6.56641,2933.09 659.301,2083.05 1888.19,1933.74 2738.23,2599.61" /><path
             id="path288"
             style="fill:#ef3320;fill-opacity:1;fill-rule:nonzero;stroke:none"
             d="m 2728.59,2611.92 c 843.24,660.54 991.35,1879.6 330.81,2722.85 C 2398.86,6178.01 1179.8,6326.12 336.559,5665.58 -506.684,5005.04 -654.793,3785.98 5.74609,2942.73 666.285,2099.49 1885.35,1951.38 2728.59,2611.92" /><path
             id="path290"
             style="fill:#ef3320;fill-opacity:1;fill-rule:nonzero;stroke:none"
             d="m 2718.95,2624.23 c 836.44,655.22 983.35,1864.45 328.14,2700.89 C 2391.88,6161.56 1182.64,6308.48 346.203,5653.27 -490.238,4998.05 -637.152,3788.82 18.0586,2952.38 673.27,2115.94 1882.5,1969.02 2718.95,2624.23" /><path
             id="path292"
             style="fill:#ef3320;fill-opacity:1;fill-rule:nonzero;stroke:none"
             d="m 2709.3,2636.55 c 829.64,649.88 975.36,1849.29 325.48,2678.93 C 2384.89,6145.12 1185.49,6290.84 355.848,5640.95 -473.793,4991.07 -619.512,3791.66 30.3711,2962.02 680.258,2132.38 1879.66,1986.66 2709.3,2636.55" /><path
             id="path294"
             style="fill:#ef3420;fill-opacity:1;fill-rule:nonzero;stroke:none"
             d="m 2699.66,2648.86 c 822.84,644.56 967.36,1834.13 322.8,2656.97 C 2377.9,6128.67 1188.34,6273.2 365.492,5628.64 -457.348,4984.08 -601.871,3794.51 42.6875,2971.67 687.246,2148.83 1876.81,2004.3 2699.66,2648.86" /><path
             id="path296"
             style="fill:#ef3520;fill-opacity:1;fill-rule:nonzero;stroke:none"
             d="m 2690.01,2661.18 c 816.04,639.23 959.37,1818.96 320.14,2635.01 C 2370.92,6112.23 1191.18,6255.56 375.141,5616.32 -440.902,4977.09 -584.234,3797.36 55,2981.32 694.23,2165.27 1873.97,2021.94 2690.01,2661.18" /><path
             id="path298"
             style="fill:#ef3620;fill-opacity:1;fill-rule:nonzero;stroke:none"
             d="m 2680.36,2673.49 c 809.24,633.9 951.38,1803.81 317.48,2613.05 C 2363.93,6095.78 1194.02,6237.92 384.785,5604.01 -424.453,4970.11 -566.594,3800.2 67.3125,2990.96 701.219,2181.72 1871.13,2039.58 2680.36,2673.49" /><path
             id="path300"
             style="fill:#ef3620;fill-opacity:1;fill-rule:nonzero;stroke:none"
             d="m 2670.72,2685.8 c 802.44,628.58 943.38,1788.65 314.8,2591.09 C 2356.95,6079.34 1196.87,6220.28 394.43,5591.7 -408.012,4963.12 -548.953,3803.05 79.625,3000.61 708.203,2198.16 1868.28,2057.22 2670.72,2685.8" /><path
             id="path302"
             style="fill:#ef3720;fill-opacity:1;fill-rule:nonzero;stroke:none"
             d="m 2661.07,2698.11 c 795.64,623.25 935.39,1773.5 312.14,2569.14 -623.25,795.64 -1773.5,935.39 -2569.136,312.14 C -391.566,4956.14 -531.313,3805.89 91.9375,3010.25 715.188,2214.61 1865.43,2074.86 2661.07,2698.11" /><path
             id="path304"
             style="fill:#ef381f;fill-opacity:1;fill-rule:nonzero;stroke:none"
             d="m 2651.43,2710.43 c 788.84,617.92 927.39,1758.34 309.47,2547.18 C 2342.97,6046.44 1202.56,6185 413.719,5567.07 -375.117,4949.15 -513.672,3808.73 104.25,3019.89 722.176,2231.06 1862.59,2092.5 2651.43,2710.43" /><path
             id="path306"
             style="fill:#ef381f;fill-opacity:1;fill-rule:nonzero;stroke:none"
             d="m 2641.79,2722.74 c 782.03,612.6 919.39,1743.18 306.79,2525.22 C 2335.98,6030 1205.41,6167.36 423.367,5554.76 -358.672,4942.16 -496.031,3811.58 116.566,3029.54 729.164,2247.5 1859.75,2110.14 2641.79,2722.74" /><path
             id="path308"
             style="fill:#ef381f;fill-opacity:1;fill-rule:nonzero;stroke:none"
             d="m 2632.14,2735.05 c 775.24,607.27 911.4,1728.02 304.13,2503.26 C 2329,6013.55 1208.25,6149.72 433.012,5542.45 -342.227,4935.18 -478.395,3814.43 128.879,3039.19 736.148,2263.95 1856.9,2127.78 2632.14,2735.05" /><path
             id="path310"
             style="fill:#ef391f;fill-opacity:1;fill-rule:nonzero;stroke:none"
             d="m 2622.49,2747.37 c 768.44,601.94 903.41,1712.86 301.47,2481.3 -601.94,768.44 -1712.87,903.4 -2481.304,301.46 C -325.781,4928.19 -460.75,3817.27 141.191,3048.83 743.133,2280.39 1854.05,2145.43 2622.49,2747.37" /><path
             id="path312"
             style="fill:#f03a1f;fill-opacity:1;fill-rule:nonzero;stroke:none"
             d="m 2612.85,2759.68 c 761.63,596.62 895.41,1697.71 298.79,2459.34 -596.61,761.64 -1697.7,895.42 -2459.339,298.8 C -309.336,4921.2 -443.113,3820.11 153.504,3058.48 750.121,2296.84 1851.21,2163.06 2612.85,2759.68" /><path
             id="path314"
             style="fill:#f03b1f;fill-opacity:1;fill-rule:nonzero;stroke:none"
             d="m 2603.2,2771.99 c 754.84,591.29 887.42,1682.55 296.13,2437.39 C 2308.04,5964.21 1216.78,6096.8 461.945,5505.51 -292.891,4914.22 -425.473,3822.96 165.816,3068.12 757.105,2313.29 1848.37,2180.7 2603.2,2771.99" /><path
             id="path316"
             style="fill:#f03c1f;fill-opacity:1;fill-rule:nonzero;stroke:none"
             d="m 2593.56,2784.3 c 748.03,585.97 879.42,1667.4 293.46,2415.43 C 2301.05,5947.77 1219.63,6079.16 471.594,5493.2 -276.445,4907.23 -407.832,3825.8 178.129,3077.77 764.094,2329.73 1845.52,2198.34 2593.56,2784.3" /><path
             id="path318"
             style="fill:#f03d1f;fill-opacity:1;fill-rule:nonzero;stroke:none"
             d="m 2583.91,2796.62 c 741.24,580.64 871.43,1652.23 290.8,2393.47 C 2294.07,5931.32 1222.47,6061.52 481.238,5480.88 -260,4900.25 -390.191,3828.65 190.445,3087.41 771.082,2346.18 1842.68,2215.98 2583.91,2796.62" /><path
             id="path320"
             style="fill:#f03d1f;fill-opacity:1;fill-rule:nonzero;stroke:none"
             d="M 2574.27,2808.93 C 3308.7,3384.24 3437.7,4446.01 2862.39,5180.44 2287.08,5914.88 1225.32,6043.88 490.883,5468.57 -243.551,4893.26 -372.551,3831.49 202.758,3097.06 778.066,2362.63 1839.83,2233.63 2574.27,2808.93" /><path
             id="path322"
             style="fill:#f03d1e;fill-opacity:1;fill-rule:nonzero;stroke:none"
             d="m 2564.62,2821.25 c 727.64,569.98 855.44,1621.91 285.46,2349.55 C 2280.1,5898.43 1228.16,6026.23 500.527,5456.25 -227.109,4886.27 -354.91,3834.34 215.07,3106.7 785.051,2379.07 1836.98,2251.27 2564.62,2821.25" /><path
             id="path324"
             style="fill:#f03e1e;fill-opacity:1;fill-rule:nonzero;stroke:none"
             d="m 2554.98,2833.56 c 720.83,564.65 847.44,1606.76 282.79,2327.59 C 2273.11,5881.99 1231.01,6008.6 510.172,5443.94 -210.664,4879.29 -337.273,3837.18 227.383,3116.35 792.039,2395.51 1834.14,2268.9 2554.98,2833.56" /><path
             id="path326"
             style="fill:#f03f1e;fill-opacity:1;fill-rule:nonzero;stroke:none"
             d="m 2545.33,2845.87 c 714.03,559.33 839.45,1591.6 280.12,2305.64 -559.32,714.03 -1591.6,839.45 -2305.63,280.12 C -194.215,4872.3 -319.633,3840.03 239.695,3126 799.023,2411.96 1831.3,2286.54 2545.33,2845.87" /><path
             id="path328"
             style="fill:#f0401e;fill-opacity:1;fill-rule:nonzero;stroke:none"
             d="m 2535.68,2858.18 c 707.24,554.01 831.46,1576.45 277.46,2283.68 -554,707.23 -1576.44,831.46 -2283.675,277.46 C -177.77,4865.31 -301.992,3842.88 252.008,3135.64 806.012,2428.41 1828.45,2304.18 2535.68,2858.18" /><path
             id="path330"
             style="fill:#f0411e;fill-opacity:1;fill-rule:nonzero;stroke:none"
             d="m 2526.04,2870.5 c 700.43,548.67 823.46,1561.28 274.79,2261.71 C 2252.15,5832.65 1239.54,5955.68 539.109,5407 -161.324,4858.33 -284.352,3845.72 264.324,3145.29 812.996,2444.85 1825.61,2321.82 2526.04,2870.5" /><path
             id="path332"
             style="fill:#f0421e;fill-opacity:1;fill-rule:nonzero;stroke:none"
             d="m 2516.39,2882.81 c 693.64,543.35 815.47,1546.13 272.12,2239.76 C 2245.16,5816.2 1242.39,5938.04 548.754,5394.69 -144.879,4851.34 -266.711,3848.56 276.637,3154.93 819.984,2461.3 1822.76,2339.46 2516.39,2882.81" /><path
             id="path334"
             style="fill:#f0421e;fill-opacity:1;fill-rule:nonzero;stroke:none"
             d="m 2506.75,2895.13 c 686.83,538.01 807.47,1530.96 269.45,2217.8 C 2238.18,5799.76 1245.23,5920.39 558.398,5382.38 -128.434,4844.36 -249.07,3851.41 288.949,3164.57 826.969,2477.74 1819.92,2357.11 2506.75,2895.13" /><path
             id="path336"
             style="fill:#f0431d;fill-opacity:1;fill-rule:nonzero;stroke:none"
             d="m 2497.11,2907.44 c 680.03,532.69 799.47,1515.81 266.78,2195.84 C 2231.2,5783.31 1248.08,5902.76 568.047,5370.06 -111.988,4837.37 -231.434,3854.25 301.262,3174.22 833.953,2494.19 1817.07,2374.74 2497.11,2907.44" /><path
             id="path338"
             style="fill:#f0441d;fill-opacity:1;fill-rule:nonzero;stroke:none"
             d="m 2487.46,2919.75 c 673.23,527.37 791.48,1500.65 264.11,2173.88 C 2224.21,5766.87 1250.93,5885.12 577.691,5357.75 -95.543,4830.38 -213.793,3857.1 313.574,3183.87 840.941,2510.63 1814.22,2392.38 2487.46,2919.75" /><path
             id="path340"
             style="fill:#f0451d;fill-opacity:1;fill-rule:nonzero;stroke:none"
             d="M 2477.81,2932.06 C 3144.25,3454.1 3261.3,4417.55 2739.26,5083.99 2217.22,5750.42 1253.77,5867.48 587.336,5345.44 -79.0977,4823.4 -196.152,3859.95 325.887,3193.51 847.926,2527.08 1811.38,2410.02 2477.81,2932.06" /><path
             id="path342"
             style="fill:#f1461d;fill-opacity:1;fill-rule:nonzero;stroke:none"
             d="m 2468.17,2944.38 c 659.63,516.71 775.49,1470.33 258.78,2129.96 -516.71,659.64 -1470.34,775.5 -2129.97,258.79 C -62.6523,4816.41 -178.512,3862.79 338.199,3203.16 854.91,2543.52 1808.54,2427.66 2468.17,2944.38" /><path
             id="path344"
             style="fill:#f1471d;fill-opacity:1;fill-rule:nonzero;stroke:none"
             d="m 2458.52,2956.69 c 652.84,511.38 767.5,1455.18 256.11,2108.01 C 2203.25,5717.53 1259.46,5832.2 606.625,5320.81 -46.207,4809.43 -160.871,3865.63 350.516,3212.8 861.898,2559.97 1805.69,2445.3 2458.52,2956.69" /><path
             id="path346"
             style="fill:#f1471d;fill-opacity:1;fill-rule:nonzero;stroke:none"
             d="m 2448.88,2969 c 646.03,506.06 759.5,1440.02 253.44,2086.05 C 2196.26,5701.09 1262.3,5814.55 616.27,5308.5 -29.7617,4802.44 -143.23,3868.48 362.828,3222.45 868.887,2576.42 1802.85,2462.95 2448.88,2969" /><path
             id="path348"
             style="fill:#f1481d;fill-opacity:1;fill-rule:nonzero;stroke:none"
             d="m 2439.23,2981.32 c 639.23,500.73 751.51,1424.86 250.78,2064.09 -500.73,639.23 -1424.86,751.5 -2064.092,250.77 C -13.3125,4795.45 -125.59,3871.32 375.141,3232.09 875.871,2592.86 1800,2480.59 2439.23,2981.32" /><path
             id="path350"
             style="fill:#f1491c;fill-opacity:1;fill-rule:nonzero;stroke:none"
             d="m 2429.59,2993.63 c 632.43,495.4 743.51,1409.7 248.11,2042.13 C 2182.29,5668.19 1267.99,5779.27 635.563,5283.87 3.13281,4788.47 -107.949,3874.17 387.453,3241.74 882.855,2609.31 1797.16,2498.23 2429.59,2993.63" /><path
             id="path352"
             style="fill:#f14a1c;fill-opacity:1;fill-rule:nonzero;stroke:none"
             d="m 2419.94,3005.94 c 625.63,490.08 735.52,1394.54 245.44,2020.18 C 2175.3,5651.75 1270.84,5761.64 645.207,5271.56 19.5742,4781.48 -90.3125,3877.02 399.766,3251.38 889.844,2625.75 1794.31,2515.86 2419.94,3005.94" /><path
             id="path354"
             style="fill:#f14b1c;fill-opacity:1;fill-rule:nonzero;stroke:none"
             d="M 2410.3,3018.25 C 3029.13,3503 3137.82,4397.64 2653.07,5016.47 2168.32,5635.3 1273.68,5744 654.852,5259.25 36.0234,4774.5 -72.6719,3879.86 412.078,3261.03 896.828,2642.2 1791.46,2533.5 2410.3,3018.25" /><path
             id="path356"
             style="fill:#f14c1c;fill-opacity:1;fill-rule:nonzero;stroke:none"
             d="m 2400.65,3030.57 c 612.03,479.42 719.53,1364.23 240.1,1976.26 -479.42,612.03 -1364.22,719.53 -1976.254,240.1 C 52.4688,4767.51 -55.0313,3882.7 424.395,3270.68 903.816,2658.64 1788.62,2551.14 2400.65,3030.57" /><path
             id="path358"
             style="fill:#f14c1c;fill-opacity:1;fill-rule:nonzero;stroke:none"
             d="m 2391,3042.88 c 605.23,474.1 711.54,1349.07 237.44,1954.3 C 2154.35,5602.41 1279.38,5708.71 674.145,5234.62 68.9141,4760.52 -37.3906,3885.55 436.707,3280.32 910.801,2675.09 1785.77,2568.79 2391,3042.88" /><path
             id="path360"
             style="fill:#f14d1c;fill-opacity:1;fill-rule:nonzero;stroke:none"
             d="m 2381.36,3055.2 c 598.43,468.76 703.54,1333.91 234.77,1932.34 C 2147.36,5585.96 1282.22,5691.07 683.789,5222.3 85.3594,4753.54 -19.75,3888.39 449.02,3289.96 917.789,2691.54 1782.93,2586.43 2381.36,3055.2" /><path
             id="path362"
             style="fill:#f14e1c;fill-opacity:1;fill-rule:nonzero;stroke:none"
             d="m 2371.71,3067.51 c 591.63,463.44 695.55,1318.75 232.11,1910.38 -463.44,591.63 -1318.76,695.54 -1910.386,232.1 C 101.805,4746.55 -2.10938,3891.24 461.332,3299.61 924.773,2707.98 1780.09,2604.07 2371.71,3067.51" /><path
             id="path364"
             style="fill:#f14f1b;fill-opacity:1;fill-rule:nonzero;stroke:none"
             d="m 2362.07,3079.82 c 584.83,458.12 687.55,1303.6 229.43,1888.43 C 2133.39,5553.07 1287.91,5655.8 703.078,5197.68 118.25,4739.56 15.5313,3894.08 473.645,3309.25 931.762,2724.43 1777.24,2621.71 2362.07,3079.82" /><path
             id="path366"
             style="fill:#f1501b;fill-opacity:1;fill-rule:nonzero;stroke:none"
             d="m 2352.43,3092.13 c 578.02,452.79 679.55,1288.44 226.76,1866.47 C 2126.4,5536.63 1290.75,5638.16 712.723,5185.37 134.695,4732.58 33.168,3896.93 485.957,3318.9 938.746,2740.87 1774.4,2639.34 2352.43,3092.13" /><path
             id="path368"
             style="fill:#f1511b;fill-opacity:1;fill-rule:nonzero;stroke:none"
             d="m 2342.78,3104.45 c 571.23,447.46 671.56,1273.28 224.1,1844.5 C 2119.41,5520.18 1293.6,5620.52 722.371,5173.05 151.141,4725.59 50.8086,3899.77 498.273,3328.55 945.734,2757.32 1771.55,2656.98 2342.78,3104.45" /><path
             id="path370"
             style="fill:#f2521b;fill-opacity:1;fill-rule:nonzero;stroke:none"
             d="m 2333.13,3116.76 c 564.43,442.13 663.57,1258.12 221.43,1822.55 C 2112.43,5503.73 1296.44,5602.87 732.016,5160.74 167.59,4718.61 68.4531,3902.62 510.586,3338.19 952.719,2773.77 1768.71,2674.63 2333.13,3116.76" /><path
             id="path372"
             style="fill:#f2531b;fill-opacity:1;fill-rule:nonzero;stroke:none"
             d="m 2323.49,3129.07 c 557.62,436.81 655.57,1242.97 218.76,1800.59 C 2105.44,5487.29 1299.29,5585.23 741.66,5148.43 184.035,4711.62 86.0898,3905.46 522.898,3347.84 959.707,2790.21 1765.86,2692.27 2323.49,3129.07" /><path
             id="path374"
             style="fill:#f2541b;fill-opacity:1;fill-rule:nonzero;stroke:none"
             d="m 2313.84,3141.39 c 550.83,431.48 647.58,1227.8 216.1,1778.63 C 2098.46,5470.85 1302.13,5567.59 751.305,5136.11 200.477,4704.63 103.73,3908.31 535.211,3357.48 966.691,2806.65 1763.02,2709.91 2313.84,3141.39" /><path
             id="path376"
             style="fill:#f2551a;fill-opacity:1;fill-rule:nonzero;stroke:none"
             d="m 2304.2,3153.7 c 544.02,426.16 639.58,1212.65 213.43,1756.68 C 2091.47,5454.4 1304.98,5549.95 760.949,5123.8 216.926,4697.64 121.371,3911.15 547.523,3367.13 973.68,2823.1 1760.17,2727.55 2304.2,3153.7" /><path
             id="path378"
             style="fill:#f2561a;fill-opacity:1;fill-rule:nonzero;stroke:none"
             d="m 2294.55,3166.01 c 537.23,420.83 631.59,1197.49 210.76,1734.72 C 2084.48,5437.95 1307.82,5532.31 770.598,5111.49 233.371,4690.66 139.012,3914 559.836,3376.77 980.664,2839.55 1757.33,2745.19 2294.55,3166.01" /><path
             id="path380"
             style="fill:#f2571a;fill-opacity:1;fill-rule:nonzero;stroke:none"
             d="M 2284.91,3178.33 C 2815.33,3593.83 2908.5,4360.66 2493,4891.08 2077.5,5421.51 1310.67,5514.67 780.242,5099.17 249.816,4683.67 156.652,3916.84 572.152,3386.42 987.652,2855.99 1754.48,2762.83 2284.91,3178.33" /><path
             id="path382"
             style="fill:#f2591a;fill-opacity:1;fill-rule:nonzero;stroke:none"
             d="m 2275.26,3190.64 c 523.63,410.17 615.6,1167.17 205.42,1690.8 C 2070.51,5405.06 1313.51,5497.03 789.887,5086.86 266.262,4676.69 174.293,3919.69 584.465,3396.06 994.637,2872.44 1751.64,2780.47 2275.26,3190.64" /><path
             id="path384"
             style="fill:#f2591a;fill-opacity:1;fill-rule:nonzero;stroke:none"
             d="m 2265.62,3202.95 c 516.82,404.85 607.6,1152.02 202.75,1668.84 -404.85,516.83 -1152.01,607.6 -1668.839,202.76 C 282.707,4669.7 191.93,3922.53 596.777,3405.71 1001.63,2888.88 1748.79,2798.11 2265.62,3202.95" /><path
             id="path386"
             style="fill:#f25a1a;fill-opacity:1;fill-rule:nonzero;stroke:none"
             d="M 2255.97,3215.27 C 2766,3614.79 2855.58,4352.13 2456.06,4862.15 2056.54,5372.17 1319.2,5461.75 809.176,5062.23 299.152,4662.71 209.57,3925.38 609.09,3415.35 c 399.52,-510.02 1136.86,-599.6 1646.88,-200.08" /><path
             id="path388"
             style="fill:#f25c19;fill-opacity:1;fill-rule:nonzero;stroke:none"
             d="m 2246.32,3227.58 c 503.23,394.19 591.62,1121.7 197.43,1624.92 -394.2,503.22 -1121.7,591.61 -1624.926,197.42 C 315.602,4655.73 227.211,3928.22 621.402,3425 1015.6,2921.78 1743.1,2833.39 2246.32,3227.58" /><path
             id="path390"
             style="fill:#f25d19;fill-opacity:1;fill-rule:nonzero;stroke:none"
             d="m 2236.68,3239.89 c 496.43,388.87 583.62,1106.54 194.75,1602.97 C 2042.57,5339.28 1324.89,5426.47 828.469,5037.61 332.043,4648.74 244.852,3931.07 633.715,3434.64 1022.58,2938.22 1740.26,2851.03 2236.68,3239.89" /><path
             id="path392"
             style="fill:#f35e19;fill-opacity:1;fill-rule:nonzero;stroke:none"
             d="m 2227.04,3252.21 c 489.62,383.54 575.62,1091.38 192.08,1581 C 2035.58,5322.83 1327.73,5408.83 838.113,5025.29 348.492,4641.75 262.492,3933.91 646.031,3444.29 1029.57,2954.67 1737.41,2868.67 2227.04,3252.21" /><path
             id="path394"
             style="fill:#f35e19;fill-opacity:1;fill-rule:nonzero;stroke:none"
             d="m 2217.39,3264.52 c 482.82,378.21 567.63,1076.22 189.41,1559.05 C 2028.59,5306.39 1330.58,5391.19 847.758,5012.98 364.938,4634.77 280.133,3936.76 658.344,3453.93 1036.55,2971.11 1734.57,2886.31 2217.39,3264.52" /><path
             id="path396"
             style="fill:#f35f19;fill-opacity:1;fill-rule:nonzero;stroke:none"
             d="m 2207.75,3276.83 c 476.02,372.88 559.63,1061.07 186.74,1537.09 C 2021.61,5289.95 1333.43,5373.55 857.402,5000.67 381.379,4627.79 297.77,3939.6 670.656,3463.58 1043.54,2987.55 1731.72,2903.95 2207.75,3276.83" /><path
             id="path398"
             style="fill:#f36118;fill-opacity:1;fill-rule:nonzero;stroke:none"
             d="m 2198.1,3289.14 c 469.22,367.56 551.63,1045.91 184.08,1515.13 C 2014.63,5273.5 1336.27,5355.91 867.051,4988.36 397.828,4620.8 315.414,3942.45 682.969,3473.23 1050.52,3004 1728.88,2921.59 2198.1,3289.14" /><path
             id="path400"
             style="fill:#f36218;fill-opacity:1;fill-rule:nonzero;stroke:none"
             d="m 2188.45,3301.46 c 462.43,362.23 543.65,1030.75 181.42,1493.17 C 2007.64,5257.05 1339.12,5338.27 876.695,4976.04 414.273,4613.81 333.051,3945.29 695.281,3482.87 1057.51,3020.45 1726.03,2939.23 2188.45,3301.46" /><path
             id="path402"
             style="fill:#f36318;fill-opacity:1;fill-rule:nonzero;stroke:none"
             d="m 2178.81,3313.77 c 455.62,356.9 535.65,1015.59 178.74,1471.21 -356.9,455.63 -1015.59,535.65 -1471.21,178.75 C 430.719,4606.83 350.691,3948.14 707.594,3492.52 1064.5,3036.89 1723.19,2956.87 2178.81,3313.77" /><path
             id="path404"
             style="fill:#f36318;fill-opacity:1;fill-rule:nonzero;stroke:none"
             d="m 2169.16,3326.09 c 448.82,351.57 527.66,1000.43 176.08,1449.25 C 1993.66,5224.16 1344.8,5302.99 895.984,4951.41 447.164,4599.84 368.332,3950.98 719.91,3502.16 1071.48,3053.34 1720.34,2974.51 2169.16,3326.09" /><path
             id="path406"
             style="fill:#f36418;fill-opacity:1;fill-rule:nonzero;stroke:none"
             d="m 2159.52,3338.4 c 442.02,346.25 519.66,985.27 173.41,1427.3 -346.25,442.01 -985.28,519.65 -1427.301,173.4 C 463.609,4592.85 385.973,3953.83 732.223,3511.8 1078.47,3069.79 1717.5,2992.15 2159.52,3338.4" /><path
             id="path408"
             style="fill:#f36518;fill-opacity:1;fill-rule:nonzero;stroke:none"
             d="m 2149.87,3350.71 c 435.22,340.92 511.67,970.12 170.74,1405.34 C 1979.69,5191.27 1350.5,5267.71 915.277,4926.79 480.055,4585.87 403.609,3956.67 744.535,3521.45 1085.46,3086.23 1714.65,3009.79 2149.87,3350.71" /><path
             id="path410"
             style="fill:#f36717;fill-opacity:1;fill-rule:nonzero;stroke:none"
             d="m 2140.23,3363.02 c 428.42,335.6 503.66,954.96 168.07,1383.38 -335.59,428.42 -954.96,503.67 -1383.378,168.08 C 496.5,4578.88 421.254,3959.52 756.848,3531.1 1092.44,3102.68 1711.8,3027.43 2140.23,3363.02" /><path
             id="path412"
             style="fill:#f36817;fill-opacity:1;fill-rule:nonzero;stroke:none"
             d="m 2130.58,3375.34 c 421.62,330.27 495.68,939.8 165.41,1361.42 -330.27,421.62 -939.8,495.67 -1361.424,165.4 -421.621,-330.27 -495.675,-939.8 -165.406,-1361.42 330.27,-421.62 939.8,-495.67 1361.42,-165.4" /><path
             id="path414"
             style="fill:#f36817;fill-opacity:1;fill-rule:nonzero;stroke:none"
             d="m 2120.94,3387.65 c 414.81,324.94 487.68,924.64 162.74,1339.46 -324.95,414.82 -924.65,487.68 -1339.469,162.74 C 529.395,4564.91 456.531,3965.21 781.473,3550.39 1106.41,3135.57 1706.12,3062.71 2120.94,3387.65" /><path
             id="path416"
             style="fill:#f46a17;fill-opacity:1;fill-rule:nonzero;stroke:none"
             d="m 2111.29,3399.96 c 408.02,319.62 479.69,909.49 160.07,1317.51 -319.61,408.02 -909.48,479.68 -1317.505,160.07 C 545.836,4557.92 474.172,3968.05 793.785,3560.03 1113.4,3152.01 1703.27,3080.35 2111.29,3399.96" /><path
             id="path418"
             style="fill:#f46b17;fill-opacity:1;fill-rule:nonzero;stroke:none"
             d="m 2101.64,3412.28 c 401.22,314.28 471.7,894.32 157.41,1295.54 -314.29,401.22 -894.33,471.69 -1295.546,157.4 C 562.285,4550.94 491.813,3970.9 806.102,3569.68 1120.39,3168.46 1700.43,3097.99 2101.64,3412.28" /><path
             id="path420"
             style="fill:#f46d16;fill-opacity:1;fill-rule:nonzero;stroke:none"
             d="m 2092,3424.59 c 394.42,308.96 463.7,879.17 154.73,1273.59 -308.96,394.41 -879.16,463.69 -1273.582,154.73 C 578.73,4543.95 509.453,3973.74 818.414,3579.32 1127.38,3184.91 1697.58,3115.63 2092,3424.59" /><path
             id="path422"
             style="fill:#f46e16;fill-opacity:1;fill-rule:nonzero;stroke:none"
             d="m 2082.36,3436.9 c 387.61,303.64 455.69,864.01 152.06,1251.63 -303.63,387.62 -864.01,455.7 -1251.627,152.07 C 595.176,4536.96 527.094,3976.59 830.727,3588.97 1134.36,3201.35 1694.74,3133.27 2082.36,3436.9" /><path
             id="path424"
             style="fill:#f46e16;fill-opacity:1;fill-rule:nonzero;stroke:none"
             d="m 2072.71,3449.21 c 380.82,298.31 447.71,848.86 149.4,1229.68 -298.31,380.81 -848.86,447.7 -1229.672,149.4 C 611.621,4529.98 544.73,3979.43 843.039,3598.61 1141.35,3217.8 1691.89,3150.91 2072.71,3449.21" /><path
             id="path426"
             style="fill:#f47016;fill-opacity:1;fill-rule:nonzero;stroke:none"
             d="m 2063.07,3461.53 c 374.01,292.98 439.71,833.69 146.73,1207.71 -292.98,374.02 -833.7,439.71 -1207.72,146.73 C 628.066,4522.99 562.371,3982.28 855.352,3608.26 1148.33,3234.24 1689.05,3168.55 2063.07,3461.53" /><path
             id="path428"
             style="fill:#f47116;fill-opacity:1;fill-rule:nonzero;stroke:none"
             d="m 2053.42,3473.84 c 367.22,287.65 431.72,818.54 144.06,1185.76 -287.65,367.21 -818.53,431.71 -1185.75,144.06 C 644.512,4516.01 580.012,3985.12 867.664,3617.91 1155.32,3250.69 1686.2,3186.19 2053.42,3473.84" /><path
             id="path430"
             style="fill:#f47315;fill-opacity:1;fill-rule:nonzero;stroke:none"
             d="m 2043.77,3486.16 c 360.42,282.32 423.73,803.38 141.4,1163.79 -282.33,360.42 -803.38,423.72 -1163.79,141.39 -360.423,-282.32 -423.728,-803.38 -141.4,-1163.79 282.32,-360.42 803.38,-423.72 1163.79,-141.39" /><path
             id="path432"
             style="fill:#f47415;fill-opacity:1;fill-rule:nonzero;stroke:none"
             d="m 2034.13,3498.47 c 353.62,277 415.73,788.22 138.73,1141.83 -277,353.62 -788.22,415.73 -1141.84,138.73 C 677.402,4502.03 615.293,3990.81 892.293,3637.2 1169.29,3283.58 1680.51,3221.47 2034.13,3498.47" /><path
             id="path434"
             style="fill:#f47515;fill-opacity:1;fill-rule:nonzero;stroke:none"
             d="m 2024.48,3510.78 c 346.82,271.67 407.73,773.06 136.06,1119.88 -271.67,346.82 -773.06,407.73 -1119.88,136.06 C 693.848,4495.05 632.934,3993.66 904.605,3646.84 1176.28,3300.02 1677.67,3239.11 2024.48,3510.78" /><path
             id="path436"
             style="fill:#f57715;fill-opacity:1;fill-rule:nonzero;stroke:none"
             d="m 2014.84,3523.09 c 340.02,266.35 399.74,757.91 133.39,1097.93 -266.35,340.01 -757.91,399.73 -1097.92,133.39 C 710.293,4488.06 650.57,3996.5 916.918,3656.48 1183.27,3316.47 1674.82,3256.75 2014.84,3523.09" /><path
             id="path438"
             style="fill:#f57815;fill-opacity:1;fill-rule:nonzero;stroke:none"
             d="m 2005.19,3535.41 c 333.22,261.02 391.74,742.75 130.73,1075.96 -261.02,333.22 -742.75,391.74 -1075.96,130.72 -333.218,-261.02 -391.745,-742.74 -130.73,-1075.96 261.02,-333.21 742.75,-391.74 1075.96,-130.72" /><path
             id="path440"
             style="fill:#f57914;fill-opacity:1;fill-rule:nonzero;stroke:none"
             d="m 1995.55,3547.72 c 326.41,255.69 383.75,727.59 128.06,1054 -255.7,326.42 -727.59,383.75 -1054.01,128.06 -326.412,-255.69 -383.748,-727.59 -128.057,-1054 255.687,-326.42 727.587,-383.75 1054.007,-128.06" /><path
             id="path442"
             style="fill:#f57a14;fill-opacity:1;fill-rule:nonzero;stroke:none"
             d="m 1985.9,3560.04 c 319.62,250.36 375.75,712.42 125.39,1032.04 -250.36,319.61 -712.43,375.75 -1032.04,125.38 C 759.633,4467.1 703.496,4005.04 953.859,3685.42 1204.22,3365.81 1666.29,3309.67 1985.9,3560.04" /><path
             id="path444"
             style="fill:#f57b14;fill-opacity:1;fill-rule:nonzero;stroke:none"
             d="m 1976.26,3572.35 c 312.81,245.04 367.76,697.27 122.72,1010.08 -245.04,312.82 -697.28,367.76 -1010.09,122.72 C 776.078,4460.11 721.133,4007.88 966.172,3695.07 1211.21,3382.25 1663.45,3327.31 1976.26,3572.35" /><path
             id="path446"
             style="fill:#f57d14;fill-opacity:1;fill-rule:nonzero;stroke:none"
             d="m 1966.61,3584.66 c 306.02,239.71 359.77,682.12 120.05,988.13 -239.71,306.01 -682.11,359.76 -988.12,120.05 C 792.523,4453.13 738.773,4010.72 978.484,3704.71 1218.2,3398.7 1660.6,3344.95 1966.61,3584.66" /><path
             id="path448"
             style="fill:#f57d14;fill-opacity:1;fill-rule:nonzero;stroke:none"
             d="m 1956.96,3596.97 c 299.22,234.39 351.77,666.96 117.39,966.17 -234.38,299.22 -666.96,351.77 -966.17,117.39 C 808.969,4446.14 756.414,4013.57 990.797,3714.36 1225.18,3415.14 1657.75,3362.59 1956.96,3596.97" /><path
             id="path450"
             style="fill:#f57e13;fill-opacity:1;fill-rule:nonzero;stroke:none"
             d="m 1947.32,3609.29 c 292.41,229.05 343.77,651.8 114.72,944.21 -229.06,292.41 -651.8,343.77 -944.21,114.71 C 825.414,4439.16 774.055,4016.42 1003.11,3724 c 229.06,-292.41 651.8,-343.77 944.21,-114.71" /><path
             id="path452"
             style="fill:#f58013;fill-opacity:1;fill-rule:nonzero;stroke:none"
             d="m 1937.68,3621.6 c 285.61,223.73 335.78,636.64 112.05,922.25 -223.73,285.61 -636.64,335.78 -922.26,112.05 -285.611,-223.73 -335.779,-636.64 -112.05,-922.25 223.73,-285.61 636.64,-335.78 922.26,-112.05" /><path
             id="path454"
             style="fill:#f58113;fill-opacity:1;fill-rule:nonzero;stroke:none"
             d="m 1928.03,3633.91 c 278.81,218.41 327.78,621.48 109.38,900.3 -218.4,278.81 -621.48,327.78 -900.29,109.38 -278.815,-218.41 -327.784,-621.48 -109.38,-900.3 218.4,-278.81 621.48,-327.78 900.29,-109.38" /><path
             id="path456"
             style="fill:#f68213;fill-opacity:1;fill-rule:nonzero;stroke:none"
             d="m 1918.39,3646.23 c 272.01,213.07 319.79,606.32 106.71,878.33 -213.08,272.01 -606.33,319.79 -878.34,106.71 -272.01,-213.07 -319.787,-606.32 -106.71,-878.33 213.08,-272.01 606.33,-319.79 878.34,-106.71" /><path
             id="path458"
             style="fill:#f68313;fill-opacity:1;fill-rule:nonzero;stroke:none"
             d="m 1908.74,3658.54 c 265.21,207.75 311.8,591.16 104.05,856.38 -207.75,265.21 -591.17,311.79 -856.38,104.04 -265.215,-207.75 -311.797,-591.16 -104.05,-856.37 207.75,-265.22 591.17,-311.8 856.38,-104.05" /><path
             id="path460"
             style="fill:#f68412;fill-opacity:1;fill-rule:nonzero;stroke:none"
             d="m 1899.09,3670.85 c 258.41,202.42 303.8,576.01 101.38,834.42 -202.42,258.41 -576.01,303.8 -834.42,101.38 -258.405,-202.42 -303.796,-576.01 -101.37,-834.42 202.42,-258.41 576,-303.8 834.41,-101.38" /><path
             id="path462"
             style="fill:#f68612;fill-opacity:1;fill-rule:nonzero;stroke:none"
             d="m 1889.45,3683.16 c 251.61,197.1 295.8,560.86 98.71,812.47 -197.09,251.6 -560.85,295.8 -812.46,98.71 -251.61,-197.1 -295.805,-560.86 -98.71,-812.46 197.09,-251.61 560.85,-295.81 812.46,-98.72" /><path
             id="path464"
             style="fill:#f68712;fill-opacity:1;fill-rule:nonzero;stroke:none"
             d="m 1879.8,3695.48 c 244.81,191.77 287.81,545.69 96.05,790.5 -191.77,244.81 -545.69,287.81 -790.51,96.04 -244.805,-191.77 -287.805,-545.69 -96.04,-790.5 191.77,-244.81 545.69,-287.81 790.5,-96.04" /><path
             id="path466"
             style="fill:#f68812;fill-opacity:1;fill-rule:nonzero;stroke:none"
             d="m 1870.16,3707.79 c 238.01,186.44 279.81,530.53 93.37,768.55 -186.44,238 -530.53,279.81 -768.54,93.37 -238.01,-186.44 -279.814,-530.53 -93.37,-768.55 186.44,-238 530.53,-279.81 768.54,-93.37" /><path
             id="path468"
             style="fill:#f68912;fill-opacity:1;fill-rule:nonzero;stroke:none"
             d="m 1860.52,3720.11 c 231.21,181.11 271.81,515.37 90.7,746.58 -181.11,231.21 -515.37,271.82 -746.58,90.7 -231.214,-181.11 -271.824,-515.37 -90.71,-746.58 181.11,-231.21 515.37,-271.82 746.59,-90.7" /><path
             id="path470"
             style="fill:#f68b11;fill-opacity:1;fill-rule:nonzero;stroke:none"
             d="m 1850.87,3732.42 c 224.41,175.78 263.82,500.21 88.04,724.62 -175.79,224.41 -500.22,263.83 -724.63,88.04 -224.409,-175.78 -263.823,-500.21 -88.04,-724.62 175.79,-224.41 500.22,-263.83 724.63,-88.04" /><path
             id="path472"
             style="fill:#f68c11;fill-opacity:1;fill-rule:nonzero;stroke:none"
             d="m 1841.22,3744.73 c 217.61,170.46 255.83,485.06 85.37,702.67 -170.46,217.61 -485.05,255.83 -702.66,85.37 -217.61,-170.46 -255.836,-485.06 -85.38,-702.67 170.47,-217.61 485.06,-255.83 702.67,-85.37" /><path
             id="path474"
             style="fill:#f78d11;fill-opacity:1;fill-rule:nonzero;stroke:none"
             d="m 1831.58,3757.04 c 210.81,165.14 247.83,469.91 82.7,680.71 -165.13,210.81 -469.9,247.84 -680.71,82.71 -210.81,-165.14 -247.836,-469.91 -82.7,-680.71 165.13,-210.81 469.9,-247.84 680.71,-82.71" /><path
             id="path476"
             style="fill:#f78e11;fill-opacity:1;fill-rule:nonzero;stroke:none"
             d="m 1821.93,3769.36 c 204.01,159.8 239.84,454.74 80.04,658.75 -159.81,204.01 -454.75,239.84 -658.76,80.03 -204,-159.8 -239.83,-454.74 -80.03,-658.75 159.81,-204.01 454.75,-239.84 658.75,-80.03" /><path
             id="path478"
             style="fill:#f78f11;fill-opacity:1;fill-rule:nonzero;stroke:none"
             d="m 1812.29,3781.67 c 197.21,154.48 231.84,439.58 77.36,636.79 -154.47,197.21 -439.58,231.85 -636.79,77.37 -197.21,-154.48 -231.84,-439.58 -77.36,-636.79 154.47,-197.21 439.58,-231.85 636.79,-77.37" /><path
             id="path480"
             style="fill:#f79110;fill-opacity:1;fill-rule:nonzero;stroke:none"
             d="m 1802.64,3793.98 c 190.41,149.16 223.85,424.43 74.7,614.84 -149.15,190.41 -424.43,223.85 -614.83,74.7 -190.41,-149.16 -223.85,-424.43 -74.7,-614.84 149.15,-190.41 424.42,-223.85 614.83,-74.7" /><path
             id="path482"
             style="fill:#f79110;fill-opacity:1;fill-rule:nonzero;stroke:none"
             d="m 1793,3806.3 c 183.6,143.82 215.85,409.27 72.03,592.87 -143.83,183.61 -409.27,215.86 -592.88,72.03 -183.6,-143.82 -215.85,-409.27 -72.03,-592.87 143.83,-183.61 409.27,-215.86 592.88,-72.03" /><path
             id="path484"
             style="fill:#f79310;fill-opacity:1;fill-rule:nonzero;stroke:none"
             d="m 1783.35,3818.61 c 176.81,138.5 207.86,394.11 69.36,570.92 -138.5,176.81 -394.1,207.86 -570.91,69.36 -176.81,-138.5 -207.87,-394.11 -69.37,-570.92 138.5,-176.81 394.11,-207.86 570.92,-69.36" /><path
             id="path486"
             style="fill:#f79410;fill-opacity:1;fill-rule:nonzero;stroke:none"
             d="m 1773.71,3830.92 c 170,133.17 199.86,378.96 66.69,548.96 -133.17,170.01 -378.95,199.87 -548.96,66.7 -170.01,-133.17 -199.87,-378.95 -66.69,-548.96 133.17,-170.01 378.95,-199.87 548.96,-66.7" /><path
             id="path488"
             style="fill:#f79510;fill-opacity:1;fill-rule:nonzero;stroke:none"
             d="m 1764.06,3843.23 c 163.21,127.85 191.87,363.8 64.03,527.01 -127.84,163.2 -363.8,191.87 -527,64.03 -163.21,-127.85 -191.88,-363.8 -64.03,-527 127.84,-163.21 363.8,-191.88 527,-64.04" /><path
             id="path490"
             style="fill:#f7970f;fill-opacity:1;fill-rule:nonzero;stroke:none"
             d="m 1754.41,3855.55 c 156.41,122.52 183.88,348.63 61.36,505.04 -122.51,156.41 -348.63,183.88 -505.04,61.36 -156.4,-122.52 -183.87,-348.63 -61.35,-505.04 122.51,-156.41 348.63,-183.88 505.03,-61.36" /><path
             id="path492"
             style="fill:#f7970f;fill-opacity:1;fill-rule:nonzero;stroke:none"
             d="m 1744.77,3867.86 c 149.61,117.19 175.88,333.48 58.69,483.09 -117.19,149.6 -333.48,175.88 -483.08,58.69 -149.61,-117.19 -175.88,-333.48 -58.69,-483.09 117.19,-149.6 333.47,-175.88 483.08,-58.69" /><path
             id="path494"
             style="fill:#f7980f;fill-opacity:1;fill-rule:nonzero;stroke:none"
             d="m 1735.13,3880.18 c 142.8,111.86 167.88,318.32 56.02,461.12 -111.86,142.81 -318.32,167.89 -461.13,56.02 C 1187.22,4285.46 1162.14,4079 1274,3936.2 c 111.86,-142.81 318.32,-167.89 461.13,-56.02" /><path
             id="path496"
             style="fill:#f89a0f;fill-opacity:1;fill-rule:nonzero;stroke:none"
             d="m 1725.48,3892.49 c 136,106.54 159.9,303.16 53.36,439.17 -106.54,136 -303.17,159.89 -439.17,53.35 -136.01,-106.54 -159.9,-303.16 -53.36,-439.17 106.54,-136 303.17,-159.89 439.17,-53.35" /><path
             id="path498"
             style="fill:#f89b0f;fill-opacity:1;fill-rule:nonzero;stroke:none"
             d="m 1715.84,3904.8 c 129.2,101.21 151.89,288.01 50.68,417.21 -101.21,129.2 -288,151.9 -417.21,50.69 -129.2,-101.21 -151.89,-288.01 -50.68,-417.21 101.21,-129.2 288,-151.9 417.21,-50.69" /><path
             id="path500"
             style="fill:#f89c0e;fill-opacity:1;fill-rule:nonzero;stroke:none"
             d="m 1706.19,3917.11 c 122.4,95.89 143.9,272.85 48.02,395.25 -95.88,122.41 -272.85,143.91 -395.25,48.03 -122.41,-95.89 -143.91,-272.85 -48.02,-395.25 95.88,-122.41 272.85,-143.91 395.25,-48.03" /><path
             id="path502"
             style="fill:#f89d0e;fill-opacity:1;fill-rule:nonzero;stroke:none"
             d="m 1696.54,3929.43 c 115.61,90.55 135.91,257.69 45.36,373.29 -90.56,115.6 -257.69,135.91 -373.29,45.35 -115.61,-90.55 -135.91,-257.69 -45.36,-373.29 90.56,-115.6 257.69,-135.91 373.29,-45.35" /><path
             id="path504"
             style="fill:#f89e0e;fill-opacity:1;fill-rule:nonzero;stroke:none"
             d="m 1686.9,3941.74 c 108.8,85.23 127.91,242.53 42.68,351.33 -85.23,108.81 -242.53,127.92 -351.33,42.69 -108.8,-85.23 -127.91,-242.53 -42.68,-351.33 85.23,-108.8 242.53,-127.92 351.33,-42.69" /><path
             id="path506"
             style="fill:#f8a00e;fill-opacity:1;fill-rule:nonzero;stroke:none"
             d="m 1677.25,3954.05 c 102.01,79.91 119.92,227.38 40.02,329.38 -79.9,102 -227.37,119.92 -329.38,40.02 -102,-79.91 -119.91,-227.38 -40.01,-329.38 79.9,-102 227.37,-119.92 329.37,-40.02" /></g></g></g></g></svg>